<svg xmlns="http://www.w3.org/2000/svg" width="13227.50" height="1740" viewBox="0 0 13227.50 1740" preserveAspectRatio="none" data-tempo="103.878836" data-unit-width="4" style="background:transparent">
<line x1="0" y1="1660" x2="13227.50" y2="1660" stroke="rgba(255,255,255,0.15)" stroke-width="1"/>
<line x1="0" y1="1420" x2="13227.50" y2="1420" stroke="rgba(255,255,255,0.15)" stroke-width="1"/>
<line x1="0" y1="1180" x2="13227.50" y2="1180" stroke="rgba(255,255,255,0.15)" stroke-width="1"/>
<line x1="0" y1="940" x2="13227.50" y2="940" stroke="rgba(255,255,255,0.15)" stroke-width="1"/>
<line x1="0" y1="700" x2="13227.50" y2="700" stroke="rgba(255,255,255,0.15)" stroke-width="1"/>
<line x1="0" y1="460" x2="13227.50" y2="460" stroke="rgba(255,255,255,0.15)" stroke-width="1"/>
<line x1="0" y1="220" x2="13227.50" y2="220" stroke="rgba(255,255,255,0.15)" stroke-width="1"/>
<rect x="337.00" y="941" width="72.00" height="18" fill="rgba(255,255,255,0.40)" rx="1"/>
<rect x="321.50" y="1001" width="126.00" height="18" fill="rgba(255,255,255,0.40)" rx="1"/>
<rect x="334.50" y="841" width="164.50" height="18" fill="rgba(255,255,255,0.40)" rx="1"/>
<rect x="396.00" y="761" width="116.00" height="18" fill="rgba(255,255,255,0.40)" rx="1"/>
<rect x="429.50" y="941" width="82.50" height="18" fill="rgba(255,255,255,0.40)" rx="1"/>
<rect x="540.00" y="941" width="58.00" height="18" fill="rgba(255,255,255,0.40)" rx="1"/>
<rect x="573.00" y="761" width="43.00" height="18" fill="rgba(255,255,255,0.40)" rx="1"/>
<rect x="514.50" y="1381" width="111.50" height="18" fill="rgba(255,255,255,0.40)" rx="1"/>
<rect x="332.00" y="901" width="327.00" height="18" fill="rgba(255,255,255,0.40)" rx="1"/>
<rect x="445.00" y="661" width="219.00" height="18" fill="rgba(255,255,255,0.40)" rx="1"/>
<rect x="659.00" y="901" width="35.50" height="18" fill="rgba(255,255,255,0.40)" rx="1"/>
<rect x="671.50" y="1381" width="117.00" height="18" fill="rgba(255,255,255,0.40)" rx="1"/>
<rect x="758.00" y="701" width="40.50" height="18" fill="rgba(255,255,255,0.40)" rx="1"/>
<rect x="803.50" y="701" width="35.50" height="18" fill="rgba(255,255,255,0.40)" rx="1"/>
<rect x="687.00" y="661" width="190.00" height="18" fill="rgba(255,255,255,0.40)" rx="1"/>
<rect x="785.50" y="941" width="96.50" height="18" fill="rgba(255,255,255,0.40)" rx="1"/>
<rect x="447.50" y="1001" width="472.50" height="18" fill="rgba(255,255,255,0.40)" rx="1"/>
<rect x="393.50" y="1081" width="534.00" height="18" fill="rgba(255,255,255,0.40)" rx="1"/>
<rect x="717.50" y="901" width="233.00" height="18" fill="rgba(255,255,255,0.40)" rx="1"/>
<rect x="831.50" y="761" width="152.00" height="18" fill="rgba(255,255,255,0.40)" rx="1"/>
<rect x="882.00" y="701" width="129.50" height="18" fill="rgba(255,255,255,0.40)" rx="1"/>
<rect x="1371.00" y="1021" width="25.50" height="18" fill="rgba(255,255,255,0.40)" rx="1"/>
<rect x="1376.50" y="1001" width="25.00" height="18" fill="rgba(255,255,255,0.40)" rx="1"/>
<rect x="1526.00" y="801" width="77.00" height="18" fill="rgba(255,255,255,0.40)" rx="1"/>
<rect x="1414.50" y="1081" width="204.00" height="18" fill="rgba(255,255,255,0.40)" rx="1"/>
<rect x="1587.50" y="761" width="202.00" height="18" fill="rgba(255,255,255,0.40)" rx="1"/>
<rect x="1670.50" y="661" width="163.00" height="18" fill="rgba(255,255,255,0.40)" rx="1"/>
<rect x="1812.50" y="801" width="119.00" height="18" fill="rgba(255,255,255,0.40)" rx="1"/>
<rect x="1779.00" y="621" width="155.00" height="18" fill="rgba(255,255,255,0.40)" rx="1"/>
<rect x="1792.00" y="941" width="155.00" height="18" fill="rgba(255,255,255,0.40)" rx="1"/>
<rect x="1973.00" y="1381" width="67.00" height="18" fill="rgba(255,255,255,0.40)" rx="1"/>
<rect x="1908.50" y="601" width="203.00" height="18" fill="rgba(255,255,255,0.40)" rx="1"/>
<rect x="1981.00" y="761" width="133.00" height="18" fill="rgba(255,255,255,0.40)" rx="1"/>
<rect x="1386.50" y="901" width="735.50" height="18" fill="rgba(255,255,255,0.40)" rx="1"/>
<rect x="1401.50" y="1001" width="741.50" height="18" fill="rgba(255,255,255,0.40)" rx="1"/>
<rect x="2116.50" y="801" width="50.50" height="18" fill="rgba(255,255,255,0.40)" rx="1"/>
<rect x="2122.00" y="901" width="79.00" height="18" fill="rgba(255,255,255,0.40)" rx="1"/>
<rect x="2061.00" y="621" width="177.00" height="18" fill="rgba(255,255,255,0.40)" rx="1"/>
<rect x="2198.50" y="801" width="42.00" height="18" fill="rgba(255,255,255,0.40)" rx="1"/>
<rect x="2108.50" y="941" width="137.50" height="18" fill="rgba(255,255,255,0.40)" rx="1"/>
<rect x="2143.00" y="1001" width="240.00" height="18" fill="rgba(255,255,255,0.40)" rx="1"/>
<rect x="2196.00" y="661" width="203.00" height="18" fill="rgba(255,255,255,0.40)" rx="1"/>
<rect x="2267.00" y="1141" width="158.50" height="18" fill="rgba(255,255,255,0.40)" rx="1"/>
<rect x="2383.00" y="861" width="82.00" height="18" fill="rgba(255,255,255,0.40)" rx="1"/>
<rect x="2238.00" y="901" width="232.50" height="18" fill="rgba(255,255,255,0.40)" rx="1"/>
<rect x="2386.00" y="621" width="95.00" height="18" fill="rgba(255,255,255,0.40)" rx="1"/>
<rect x="2481.00" y="621" width="39.50" height="18" fill="rgba(255,255,255,0.40)" rx="1"/>
<rect x="2473.00" y="1381" width="71.00" height="18" fill="rgba(255,255,255,0.40)" rx="1"/>
<rect x="2562.50" y="901" width="79.50" height="18" fill="rgba(255,255,255,0.40)" rx="1"/>
<rect x="2462.50" y="1141" width="182.00" height="18" fill="rgba(255,255,255,0.40)" rx="1"/>
<rect x="2573.00" y="761" width="79.50" height="18" fill="rgba(255,255,255,0.40)" rx="1"/>
<rect x="2465.00" y="661" width="237.50" height="18" fill="rgba(255,255,255,0.40)" rx="1"/>
<rect x="2644.50" y="1141" width="134.50" height="18" fill="rgba(255,255,255,0.40)" rx="1"/>
<rect x="1384.00" y="841" width="1424.00" height="18" fill="rgba(255,255,255,0.40)" rx="1"/>
<rect x="2700.00" y="901" width="129.00" height="18" fill="rgba(255,255,255,0.40)" rx="1"/>
<rect x="2816.00" y="761" width="55.50" height="18" fill="rgba(255,255,255,0.40)" rx="1"/>
<rect x="2824.00" y="941" width="81.50" height="18" fill="rgba(255,255,255,0.40)" rx="1"/>
<rect x="2383.00" y="1001" width="617.50" height="18" fill="rgba(255,255,255,0.40)" rx="1"/>
<rect x="2929.50" y="941" width="76.50" height="18" fill="rgba(255,255,255,0.40)" rx="1"/>
<rect x="3000.50" y="561" width="42.50" height="18" fill="rgba(255,255,255,0.40)" rx="1"/>
<rect x="2834.50" y="701" width="227.00" height="18" fill="rgba(255,255,255,0.40)" rx="1"/>
<rect x="2781.50" y="861" width="296.00" height="18" fill="rgba(255,255,255,0.40)" rx="1"/>
<rect x="3048.00" y="941" width="40.00" height="18" fill="rgba(255,255,255,0.40)" rx="1"/>
<rect x="2797.50" y="801" width="309.50" height="18" fill="rgba(255,255,255,0.40)" rx="1"/>
<rect x="3061.50" y="1001" width="134.50" height="18" fill="rgba(255,255,255,0.40)" rx="1"/>
<rect x="3045.50" y="661" width="317.50" height="18" fill="rgba(255,255,255,0.40)" rx="1"/>
<rect x="3271.50" y="901" width="94.00" height="18" fill="rgba(255,255,255,0.40)" rx="1"/>
<rect x="3693.00" y="941" width="130.50" height="18" fill="rgba(255,255,255,0.40)" rx="1"/>
<rect x="3250.00" y="1001" width="641.50" height="18" fill="rgba(255,255,255,0.40)" rx="1"/>
<rect x="3815.50" y="1141" width="136.00" height="18" fill="rgba(255,255,255,0.40)" rx="1"/>
<rect x="3107.00" y="761" width="885.50" height="18" fill="rgba(255,255,255,0.40)" rx="1"/>
<rect x="3891.50" y="1001" width="202.00" height="18" fill="rgba(255,255,255,0.40)" rx="1"/>
<rect x="3061.50" y="841" width="1077.50" height="18" fill="rgba(255,255,255,0.40)" rx="1"/>
<rect x="4098.50" y="1001" width="67.00" height="18" fill="rgba(255,255,255,0.40)" rx="1"/>
<rect x="4098.50" y="541" width="70.00" height="18" fill="rgba(255,255,255,0.40)" rx="1"/>
<rect x="4361.50" y="661" width="99.00" height="18" fill="rgba(255,255,255,0.40)" rx="1"/>
<rect x="4139.00" y="841" width="335.00" height="18" fill="rgba(255,255,255,0.40)" rx="1"/>
<rect x="4458.00" y="1141" width="136.50" height="18" fill="rgba(255,255,255,0.40)" rx="1"/>
<rect x="4098.50" y="901" width="520.00" height="18" fill="rgba(255,255,255,0.40)" rx="1"/>
<rect x="4460.50" y="861" width="179.50" height="18" fill="rgba(255,255,255,0.40)" rx="1"/>
<rect x="4474.00" y="801" width="187.50" height="18" fill="rgba(255,255,255,0.40)" rx="1"/>
<rect x="4659.00" y="761" width="115.00" height="18" fill="rgba(255,255,255,0.40)" rx="1"/>
<rect x="4594.50" y="841" width="244.00" height="18" fill="rgba(255,255,255,0.40)" rx="1"/>
<rect x="4651.00" y="1001" width="187.50" height="18" fill="rgba(255,255,255,0.40)" rx="1"/>
<rect x="4790.50" y="801" width="72.00" height="18" fill="rgba(255,255,255,0.40)" rx="1"/>
<rect x="4594.50" y="1141" width="273.50" height="18" fill="rgba(255,255,255,0.40)" rx="1"/>
<rect x="4862.50" y="801" width="78.00" height="18" fill="rgba(255,255,255,0.40)" rx="1"/>
<rect x="4774.00" y="861" width="214.50" height="18" fill="rgba(255,255,255,0.40)" rx="1"/>
<rect x="4940.50" y="1081" width="139.50" height="18" fill="rgba(255,255,255,0.40)" rx="1"/>
<rect x="5013.00" y="841" width="191.00" height="18" fill="rgba(255,255,255,0.40)" rx="1"/>
<rect x="4946.00" y="1321" width="260.50" height="18" fill="rgba(255,255,255,0.40)" rx="1"/>
<rect x="5080.00" y="1081" width="132.00" height="18" fill="rgba(255,255,255,0.40)" rx="1"/>
<rect x="4921.50" y="901" width="295.50" height="18" fill="rgba(255,255,255,0.40)" rx="1"/>
<rect x="5206.50" y="1301" width="37.00" height="18" fill="rgba(255,255,255,0.40)" rx="1"/>
<rect x="5225.00" y="941" width="68.50" height="18" fill="rgba(255,255,255,0.40)" rx="1"/>
<rect x="5293.50" y="941" width="44.50" height="18" fill="rgba(255,255,255,0.40)" rx="1"/>
<rect x="5280.00" y="801" width="178.50" height="18" fill="rgba(255,255,255,0.40)" rx="1"/>
<rect x="5411.50" y="1041" width="81.50" height="18" fill="rgba(255,255,255,0.40)" rx="1"/>
<rect x="5388.00" y="941" width="107.50" height="18" fill="rgba(255,255,255,0.40)" rx="1"/>
<rect x="5458.50" y="801" width="45.00" height="18" fill="rgba(255,255,255,0.40)" rx="1"/>
<rect x="5532.00" y="801" width="71.00" height="18" fill="rgba(255,255,255,0.40)" rx="1"/>
<rect x="5259.00" y="1181" width="391.50" height="18" fill="rgba(255,255,255,0.40)" rx="1"/>
<rect x="5613.50" y="701" width="55.50" height="18" fill="rgba(255,255,255,0.40)" rx="1"/>
<rect x="5241.00" y="1421" width="467.50" height="18" fill="rgba(255,255,255,0.40)" rx="1"/>
<rect x="5209.50" y="861" width="734.00" height="18" fill="rgba(255,255,255,0.40)" rx="1"/>
<rect x="5766.50" y="801" width="179.50" height="18" fill="rgba(255,255,255,0.40)" rx="1"/>
<rect x="5946.00" y="801" width="82.00" height="18" fill="rgba(255,255,255,0.40)" rx="1"/>
<rect x="5703.50" y="701" width="329.50" height="18" fill="rgba(255,255,255,0.40)" rx="1"/>
<rect x="5545.50" y="1041" width="527.00" height="18" fill="rgba(255,255,255,0.40)" rx="1"/>
<rect x="6028.00" y="801" width="237.50" height="18" fill="rgba(255,255,255,0.40)" rx="1"/>
<rect x="6033.00" y="701" width="262.00" height="18" fill="rgba(255,255,255,0.40)" rx="1"/>
<rect x="5495.50" y="941" width="805.00" height="18" fill="rgba(255,255,255,0.40)" rx="1"/>
<rect x="5943.50" y="861" width="367.50" height="18" fill="rgba(255,255,255,0.40)" rx="1"/>
<rect x="6208.50" y="761" width="105.50" height="18" fill="rgba(255,255,255,0.40)" rx="1"/>
<rect x="6300.50" y="1041" width="35.00" height="18" fill="rgba(255,255,255,0.40)" rx="1"/>
<rect x="6249.00" y="901" width="89.00" height="18" fill="rgba(255,255,255,0.40)" rx="1"/>
<rect x="6308.50" y="1101" width="113.00" height="18" fill="rgba(255,255,255,0.40)" rx="1"/>
<rect x="6311.00" y="861" width="140.00" height="18" fill="rgba(255,255,255,0.40)" rx="1"/>
<rect x="6516.00" y="941" width="40.50" height="18" fill="rgba(255,255,255,0.40)" rx="1"/>
<rect x="6529.50" y="841" width="35.00" height="18" fill="rgba(255,255,255,0.40)" rx="1"/>
<rect x="6421.50" y="1081" width="151.00" height="18" fill="rgba(255,255,255,0.40)" rx="1"/>
<rect x="6599.50" y="721" width="37.50" height="18" fill="rgba(255,255,255,0.40)" rx="1"/>
<rect x="6553.50" y="801" width="102.50" height="18" fill="rgba(255,255,255,0.40)" rx="1"/>
<rect x="6529.50" y="1041" width="129.00" height="18" fill="rgba(255,255,255,0.40)" rx="1"/>
<rect x="6548.00" y="861" width="174.50" height="18" fill="rgba(255,255,255,0.40)" rx="1"/>
<rect x="6551.00" y="921" width="208.50" height="18" fill="rgba(255,255,255,0.40)" rx="1"/>
<rect x="6701.00" y="721" width="71.50" height="18" fill="rgba(255,255,255,0.40)" rx="1"/>
<rect x="6653.50" y="761" width="164.50" height="18" fill="rgba(255,255,255,0.40)" rx="1"/>
<rect x="6637.00" y="1001" width="218.00" height="18" fill="rgba(255,255,255,0.40)" rx="1"/>
<rect x="6823.00" y="681" width="56.00" height="18" fill="rgba(255,255,255,0.40)" rx="1"/>
<rect x="6759.50" y="921" width="175.00" height="18" fill="rgba(255,255,255,0.40)" rx="1"/>
<rect x="6897.50" y="981" width="74.00" height="18" fill="rgba(255,255,255,0.40)" rx="1"/>
<rect x="6778.00" y="1081" width="286.50" height="18" fill="rgba(255,255,255,0.40)" rx="1"/>
<rect x="7003.50" y="661" width="74.50" height="18" fill="rgba(255,255,255,0.40)" rx="1"/>
<rect x="7056.50" y="981" width="63.50" height="18" fill="rgba(255,255,255,0.40)" rx="1"/>
<rect x="7101.50" y="1081" width="69.00" height="18" fill="rgba(255,255,255,0.40)" rx="1"/>
<rect x="7165.50" y="661" width="29.50" height="18" fill="rgba(255,255,255,0.40)" rx="1"/>
<rect x="6772.50" y="841" width="468.00" height="18" fill="rgba(255,255,255,0.40)" rx="1"/>
<rect x="7195.00" y="661" width="67.00" height="18" fill="rgba(255,255,255,0.40)" rx="1"/>
<rect x="7286.00" y="841" width="75.00" height="18" fill="rgba(255,255,255,0.40)" rx="1"/>
<rect x="7302.00" y="661" width="212.00" height="18" fill="rgba(255,255,255,0.40)" rx="1"/>
<rect x="7506.00" y="1321" width="45.50" height="18" fill="rgba(255,255,255,0.40)" rx="1"/>
<rect x="6924.00" y="901" width="638.00" height="18" fill="rgba(255,255,255,0.40)" rx="1"/>
<rect x="7471.00" y="1381" width="91.00" height="18" fill="rgba(255,255,255,0.40)" rx="1"/>
<rect x="7516.50" y="1501" width="56.50" height="18" fill="rgba(255,255,255,0.40)" rx="1"/>
<rect x="7581.00" y="1481" width="29.50" height="18" fill="rgba(255,255,255,0.40)" rx="1"/>
<rect x="7551.50" y="1321" width="85.50" height="18" fill="rgba(255,255,255,0.40)" rx="1"/>
<rect x="7661.00" y="1321" width="105.00" height="18" fill="rgba(255,255,255,0.40)" rx="1"/>
<rect x="7757.50" y="941" width="35.00" height="18" fill="rgba(255,255,255,0.40)" rx="1"/>
<rect x="7792.50" y="1321" width="70.00" height="18" fill="rgba(255,255,255,0.40)" rx="1"/>
<rect x="7846.00" y="941" width="43.00" height="18" fill="rgba(255,255,255,0.40)" rx="1"/>
<rect x="7814.00" y="1001" width="86.00" height="18" fill="rgba(255,255,255,0.40)" rx="1"/>
<rect x="7881.00" y="1321" width="48.50" height="18" fill="rgba(255,255,255,0.40)" rx="1"/>
<rect x="7661.00" y="1381" width="284.50" height="18" fill="rgba(255,255,255,0.40)" rx="1"/>
<rect x="7918.50" y="941" width="35.00" height="18" fill="rgba(255,255,255,0.40)" rx="1"/>
<rect x="7929.50" y="1001" width="37.50" height="18" fill="rgba(255,255,255,0.40)" rx="1"/>
<rect x="7508.50" y="1141" width="584.50" height="18" fill="rgba(255,255,255,0.40)" rx="1"/>
<rect x="8098.00" y="1141" width="27.00" height="18" fill="rgba(255,255,255,0.40)" rx="1"/>
<rect x="8141.00" y="1321" width="48.50" height="18" fill="rgba(255,255,255,0.40)" rx="1"/>
<rect x="8106.00" y="1381" width="112.50" height="18" fill="rgba(255,255,255,0.40)" rx="1"/>
<rect x="8160.00" y="1241" width="61.00" height="18" fill="rgba(255,255,255,0.40)" rx="1"/>
<rect x="8224.00" y="1241" width="26.50" height="18" fill="rgba(255,255,255,0.40)" rx="1"/>
<rect x="8245.00" y="1381" width="24.00" height="18" fill="rgba(255,255,255,0.40)" rx="1"/>
<rect x="8250.50" y="1261" width="39.50" height="18" fill="rgba(255,255,255,0.40)" rx="1"/>
<rect x="8290.00" y="1241" width="32.00" height="18" fill="rgba(255,255,255,0.40)" rx="1"/>
<rect x="8316.50" y="1381" width="42.50" height="18" fill="rgba(255,255,255,0.40)" rx="1"/>
<rect x="8393.50" y="941" width="32.00" height="18" fill="rgba(255,255,255,0.40)" rx="1"/>
<rect x="8218.50" y="1321" width="215.00" height="18" fill="rgba(255,255,255,0.40)" rx="1"/>
<rect x="8388.50" y="1381" width="76.50" height="18" fill="rgba(255,255,255,0.40)" rx="1"/>
<rect x="8433.50" y="1301" width="31.50" height="18" fill="rgba(255,255,255,0.40)" rx="1"/>
<rect x="8449.50" y="1241" width="42.50" height="18" fill="rgba(255,255,255,0.40)" rx="1"/>
<rect x="8465.00" y="1321" width="27.00" height="18" fill="rgba(255,255,255,0.40)" rx="1"/>
<rect x="8518.50" y="1321" width="37.00" height="18" fill="rgba(255,255,255,0.40)" rx="1"/>
<rect x="8489.00" y="941" width="93.00" height="18" fill="rgba(255,255,255,0.40)" rx="1"/>
<rect x="8555.50" y="1001" width="42.50" height="18" fill="rgba(255,255,255,0.40)" rx="1"/>
<rect x="8555.50" y="901" width="63.50" height="18" fill="rgba(255,255,255,0.40)" rx="1"/>
<rect x="8125.00" y="1141" width="504.50" height="18" fill="rgba(255,255,255,0.40)" rx="1"/>
<rect x="8492.00" y="1381" width="148.50" height="18" fill="rgba(255,255,255,0.40)" rx="1"/>
<rect x="8629.50" y="1141" width="109.50" height="18" fill="rgba(255,255,255,0.40)" rx="1"/>
<rect x="8651.00" y="701" width="101.50" height="18" fill="rgba(255,255,255,0.40)" rx="1"/>
<rect x="8752.50" y="1001" width="40.00" height="18" fill="rgba(255,255,255,0.40)" rx="1"/>
<rect x="8773.50" y="1321" width="32.50" height="18" fill="rgba(255,255,255,0.40)" rx="1"/>
<rect x="8792.50" y="1241" width="29.50" height="18" fill="rgba(255,255,255,0.40)" rx="1"/>
<rect x="8827.50" y="1381" width="26.50" height="18" fill="rgba(255,255,255,0.40)" rx="1"/>
<rect x="8749.50" y="661" width="118.00" height="18" fill="rgba(255,255,255,0.40)" rx="1"/>
<rect x="8822.00" y="1241" width="72.50" height="18" fill="rgba(255,255,255,0.40)" rx="1"/>
<rect x="8851.50" y="1081" width="53.50" height="18" fill="rgba(255,255,255,0.40)" rx="1"/>
<rect x="8830.00" y="941" width="80.50" height="18" fill="rgba(255,255,255,0.40)" rx="1"/>
<rect x="8907.50" y="1321" width="46.00" height="18" fill="rgba(255,255,255,0.40)" rx="1"/>
<rect x="8953.50" y="1381" width="26.50" height="18" fill="rgba(255,255,255,0.40)" rx="1"/>
<rect x="9020.50" y="1381" width="53.50" height="18" fill="rgba(255,255,255,0.40)" rx="1"/>
<rect x="8953.50" y="1321" width="176.50" height="18" fill="rgba(255,255,255,0.40)" rx="1"/>
<rect x="8894.50" y="621" width="252.00" height="18" fill="rgba(255,255,255,0.40)" rx="1"/>
<rect x="9125.00" y="1381" width="56.00" height="18" fill="rgba(255,255,255,0.40)" rx="1"/>
<rect x="8773.50" y="1141" width="440.00" height="18" fill="rgba(255,255,255,0.40)" rx="1"/>
<rect x="9194.50" y="761" width="50.50" height="18" fill="rgba(255,255,255,0.40)" rx="1"/>
<rect x="9167.50" y="1001" width="85.50" height="18" fill="rgba(255,255,255,0.40)" rx="1"/>
<rect x="9210.50" y="841" width="71.00" height="18" fill="rgba(255,255,255,0.40)" rx="1"/>
<rect x="9213.50" y="601" width="118.00" height="18" fill="rgba(255,255,255,0.40)" rx="1"/>
<rect x="9229.00" y="1141" width="121.00" height="18" fill="rgba(255,255,255,0.40)" rx="1"/>
<rect x="9167.50" y="901" width="185.00" height="18" fill="rgba(255,255,255,0.40)" rx="1"/>
<rect x="9355.00" y="661" width="205.00" height="18" fill="rgba(255,255,255,0.40)" rx="1"/>
<rect x="9478.50" y="1141" width="262.50" height="18" fill="rgba(255,255,255,0.40)" rx="1"/>
<rect x="9470.50" y="721" width="363.00" height="18" fill="rgba(255,255,255,0.40)" rx="1"/>
<rect x="9738.50" y="761" width="295.50" height="18" fill="rgba(255,255,255,0.40)" rx="1"/>
<rect x="10031.50" y="1281" width="222.00" height="18" fill="rgba(255,255,255,0.40)" rx="1"/>
<rect x="10237.50" y="1101" width="43.00" height="18" fill="rgba(255,255,255,0.40)" rx="1"/>
<rect x="10018.50" y="901" width="278.00" height="18" fill="rgba(255,255,255,0.40)" rx="1"/>
<rect x="10155.50" y="1341" width="170.50" height="18" fill="rgba(255,255,255,0.40)" rx="1"/>
<rect x="10286.00" y="1281" width="110.50" height="18" fill="rgba(255,255,255,0.40)" rx="1"/>
<rect x="10259.00" y="1041" width="142.50" height="18" fill="rgba(255,255,255,0.40)" rx="1"/>
<rect x="10407.00" y="1521" width="24.50" height="18" fill="rgba(255,255,255,0.40)" rx="1"/>
<rect x="10337.00" y="781" width="108.00" height="18" fill="rgba(255,255,255,0.40)" rx="1"/>
<rect x="10393.50" y="661" width="51.50" height="18" fill="rgba(255,255,255,0.40)" rx="1"/>
<rect x="10396.50" y="1341" width="51.00" height="18" fill="rgba(255,255,255,0.40)" rx="1"/>
<rect x="10442.00" y="601" width="27.00" height="18" fill="rgba(255,255,255,0.40)" rx="1"/>
<rect x="10445.00" y="661" width="29.50" height="18" fill="rgba(255,255,255,0.40)" rx="1"/>
<rect x="10439.50" y="801" width="43.00" height="18" fill="rgba(255,255,255,0.40)" rx="1"/>
<rect x="10334.50" y="901" width="161.50" height="18" fill="rgba(255,255,255,0.40)" rx="1"/>
<rect x="10023.50" y="841" width="510.00" height="18" fill="rgba(255,255,255,0.40)" rx="1"/>
<rect x="10396.50" y="1281" width="175.00" height="18" fill="rgba(255,255,255,0.40)" rx="1"/>
<rect x="10496.00" y="901" width="83.50" height="18" fill="rgba(255,255,255,0.40)" rx="1"/>
<rect x="10533.50" y="841" width="48.50" height="18" fill="rgba(255,255,255,0.40)" rx="1"/>
<rect x="10445.00" y="781" width="153.50" height="18" fill="rgba(255,255,255,0.40)" rx="1"/>
<rect x="10571.50" y="1281" width="32.50" height="18" fill="rgba(255,255,255,0.40)" rx="1"/>
<rect x="10474.50" y="1081" width="137.50" height="18" fill="rgba(255,255,255,0.40)" rx="1"/>
<rect x="10582.00" y="841" width="51.50" height="18" fill="rgba(255,255,255,0.40)" rx="1"/>
<rect x="10617.50" y="721" width="18.50" height="18" fill="rgba(255,255,255,0.40)" rx="1"/>
<rect x="10579.50" y="901" width="70.00" height="18" fill="rgba(255,255,255,0.40)" rx="1"/>
<rect x="10625.50" y="1101" width="37.50" height="18" fill="rgba(255,255,255,0.40)" rx="1"/>
<rect x="10595.50" y="1141" width="86.50" height="18" fill="rgba(255,255,255,0.40)" rx="1"/>
<rect x="10666.00" y="901" width="40.00" height="18" fill="rgba(255,255,255,0.40)" rx="1"/>
<rect x="10604.00" y="1281" width="115.50" height="18" fill="rgba(255,255,255,0.40)" rx="1"/>
<rect x="10612.00" y="1041" width="129.00" height="18" fill="rgba(255,255,255,0.40)" rx="1"/>
<rect x="10684.50" y="681" width="70.00" height="18" fill="rgba(255,255,255,0.40)" rx="1"/>
<rect x="10706.00" y="921" width="73.00" height="18" fill="rgba(255,255,255,0.40)" rx="1"/>
<rect x="10566.00" y="1241" width="215.50" height="18" fill="rgba(255,255,255,0.40)" rx="1"/>
<rect x="10701.00" y="1341" width="104.50" height="18" fill="rgba(255,255,255,0.40)" rx="1"/>
<rect x="10682.00" y="1101" width="126.50" height="18" fill="rgba(255,255,255,0.40)" rx="1"/>
<rect x="10749.50" y="661" width="59.00" height="18" fill="rgba(255,255,255,0.40)" rx="1"/>
<rect x="10706.00" y="901" width="113.00" height="18" fill="rgba(255,255,255,0.40)" rx="1"/>
<rect x="10840.50" y="661" width="29.50" height="18" fill="rgba(255,255,255,0.40)" rx="1"/>
<rect x="10829.50" y="1101" width="72.50" height="18" fill="rgba(255,255,255,0.40)" rx="1"/>
<rect x="10781.50" y="1241" width="193.00" height="18" fill="rgba(255,255,255,0.40)" rx="1"/>
<rect x="10870.00" y="1341" width="163.50" height="18" fill="rgba(255,255,255,0.40)" rx="1"/>
<rect x="10953.00" y="1041" width="241.50" height="18" fill="rgba(255,255,255,0.40)" rx="1"/>
<rect x="10878.00" y="901" width="367.00" height="18" fill="rgba(255,255,255,0.40)" rx="1"/>
<rect x="11191.50" y="1281" width="78.00" height="18" fill="rgba(255,255,255,0.40)" rx="1"/>
<rect x="11199.50" y="721" width="88.50" height="18" fill="rgba(255,255,255,0.40)" rx="1"/>
<rect x="11245.00" y="901" width="48.00" height="18" fill="rgba(255,255,255,0.40)" rx="1"/>
<rect x="11245.00" y="661" width="106.00" height="18" fill="rgba(255,255,255,0.40)" rx="1"/>
<rect x="11301.00" y="861" width="250.50" height="18" fill="rgba(255,255,255,0.40)" rx="1"/>
<rect x="11301.00" y="681" width="253.50" height="18" fill="rgba(255,255,255,0.40)" rx="1"/>
<rect x="11314.00" y="1241" width="243.00" height="18" fill="rgba(255,255,255,0.40)" rx="1"/>
<rect x="11210.50" y="1101" width="433.50" height="18" fill="rgba(255,255,255,0.40)" rx="1"/>
<rect x="10560.50" y="761" width="1118.00" height="18" fill="rgba(255,255,255,0.40)" rx="1"/>
<rect x="11678.50" y="761" width="31.50" height="18" fill="rgba(255,255,255,0.40)" rx="1"/>
<rect x="11710.00" y="801" width="21.00" height="18" fill="rgba(255,255,255,0.40)" rx="1"/>
<rect x="11704.50" y="961" width="34.50" height="18" fill="rgba(255,255,255,0.40)" rx="1"/>
<rect x="11512.00" y="901" width="229.50" height="18" fill="rgba(255,255,255,0.40)" rx="1"/>
<rect x="11691.50" y="1101" width="58.00" height="18" fill="rgba(255,255,255,0.40)" rx="1"/>
<rect x="11710.00" y="661" width="47.50" height="18" fill="rgba(255,255,255,0.40)" rx="1"/>
<rect x="11710.00" y="721" width="66.00" height="18" fill="rgba(255,255,255,0.40)" rx="1"/>
<rect x="11741.50" y="901" width="50.50" height="18" fill="rgba(255,255,255,0.40)" rx="1"/>
<rect x="11776.00" y="1101" width="32.00" height="18" fill="rgba(255,255,255,0.40)" rx="1"/>
<rect x="11731.00" y="1041" width="96.00" height="18" fill="rgba(255,255,255,0.40)" rx="1"/>
<rect x="11781.50" y="681" width="56.00" height="18" fill="rgba(255,255,255,0.40)" rx="1"/>
<rect x="11792.00" y="901" width="75.00" height="18" fill="rgba(255,255,255,0.40)" rx="1"/>
<rect x="11681.00" y="1241" width="197.00" height="18" fill="rgba(255,255,255,0.40)" rx="1"/>
<rect x="11837.50" y="921" width="40.50" height="18" fill="rgba(255,255,255,0.40)" rx="1"/>
<rect x="11840.50" y="661" width="69.50" height="18" fill="rgba(255,255,255,0.40)" rx="1"/>
<rect x="11899.50" y="861" width="42.50" height="18" fill="rgba(255,255,255,0.40)" rx="1"/>
<rect x="11896.50" y="1241" width="56.50" height="18" fill="rgba(255,255,255,0.40)" rx="1"/>
<rect x="11784.00" y="1341" width="195.50" height="18" fill="rgba(255,255,255,0.40)" rx="1"/>
<rect x="11958.50" y="1081" width="48.00" height="18" fill="rgba(255,255,255,0.40)" rx="1"/>
<rect x="11969.00" y="841" width="45.50" height="18" fill="rgba(255,255,255,0.40)" rx="1"/>
<rect x="11878.00" y="901" width="262.50" height="18" fill="rgba(255,255,255,0.40)" rx="1"/>
<rect x="12033.50" y="841" width="128.50" height="18" fill="rgba(255,255,255,0.40)" rx="1"/>
<rect x="12138.00" y="1081" width="29.50" height="18" fill="rgba(255,255,255,0.40)" rx="1"/>
<rect x="11904.50" y="781" width="281.50" height="18" fill="rgba(255,255,255,0.40)" rx="1"/>
<rect x="12092.50" y="1281" width="99.00" height="18" fill="rgba(255,255,255,0.40)" rx="1"/>
<rect x="12140.50" y="901" width="64.50" height="18" fill="rgba(255,255,255,0.40)" rx="1"/>
<rect x="12167.50" y="1101" width="43.00" height="18" fill="rgba(255,255,255,0.40)" rx="1"/>
<rect x="12197.00" y="661" width="13.50" height="18" fill="rgba(255,255,255,0.40)" rx="1"/>
<rect x="12167.50" y="1081" width="45.50" height="18" fill="rgba(255,255,255,0.40)" rx="1"/>
<rect x="12189.00" y="1141" width="42.50" height="18" fill="rgba(255,255,255,0.40)" rx="1"/>
<rect x="12223.50" y="781" width="59.00" height="18" fill="rgba(255,255,255,0.40)" rx="1"/>
<rect x="12226.50" y="861" width="59.00" height="18" fill="rgba(255,255,255,0.40)" rx="1"/>
<rect x="12205.00" y="901" width="83.00" height="18" fill="rgba(255,255,255,0.40)" rx="1"/>
<rect x="12234.50" y="661" width="66.50" height="18" fill="rgba(255,255,255,0.40)" rx="1"/>
<rect x="12189.00" y="1341" width="130.50" height="18" fill="rgba(255,255,255,0.40)" rx="1"/>
<rect x="12274.50" y="1101" width="55.50" height="18" fill="rgba(255,255,255,0.40)" rx="1"/>
<rect x="12298.50" y="721" width="84.00" height="18" fill="rgba(255,255,255,0.40)" rx="1"/>
<rect x="12348.50" y="1341" width="52.50" height="18" fill="rgba(255,255,255,0.40)" rx="1"/>
<rect x="12288.00" y="901" width="134.00" height="18" fill="rgba(255,255,255,0.40)" rx="1"/>
<rect x="12340.50" y="661" width="84.00" height="18" fill="rgba(255,255,255,0.40)" rx="1"/>
<rect x="12398.50" y="861" width="220.50" height="18" fill="rgba(255,255,255,0.40)" rx="1"/>
<rect x="12395.50" y="681" width="226.00" height="18" fill="rgba(255,255,255,0.40)" rx="1"/>
<rect x="12451.00" y="1341" width="170.50" height="18" fill="rgba(255,255,255,0.40)" rx="1"/>
<rect x="12422.00" y="901" width="202.00" height="18" fill="rgba(255,255,255,0.40)" rx="1"/>
<rect x="12330.00" y="1101" width="315.00" height="18" fill="rgba(255,255,255,0.40)" rx="1"/>
<rect x="12395.50" y="1241" width="257.50" height="18" fill="rgba(255,255,255,0.40)" rx="1"/>
<rect x="12619.00" y="861" width="286.50" height="18" fill="rgba(255,255,255,0.40)" rx="1"/>
<rect x="11710.00" y="761" width="1517.00" height="18" fill="rgba(255,255,255,0.40)" rx="1"/>
</svg>