<svg xmlns="http://www.w3.org/2000/svg" width="7013.00" height="1740" viewBox="0 0 7013.00 1740" preserveAspectRatio="none" style="background:transparent">
<line x1="0" y1="1660" x2="7013.00" y2="1660" stroke="rgba(255,255,255,0.15)" stroke-width="1"/>
<line x1="0" y1="1420" x2="7013.00" y2="1420" stroke="rgba(255,255,255,0.15)" stroke-width="1"/>
<line x1="0" y1="1180" x2="7013.00" y2="1180" stroke="rgba(255,255,255,0.15)" stroke-width="1"/>
<line x1="0" y1="940" x2="7013.00" y2="940" stroke="rgba(255,255,255,0.15)" stroke-width="1"/>
<line x1="0" y1="700" x2="7013.00" y2="700" stroke="rgba(255,255,255,0.15)" stroke-width="1"/>
<line x1="0" y1="460" x2="7013.00" y2="460" stroke="rgba(255,255,255,0.15)" stroke-width="1"/>
<line x1="0" y1="220" x2="7013.00" y2="220" stroke="rgba(255,255,255,0.15)" stroke-width="1"/>
<rect x="134.50" y="261" width="44.00" height="18" fill="rgba(255,255,255,0.40)" rx="1"/>
<rect x="148.75" y="61" width="34.75" height="18" fill="rgba(255,255,255,0.40)" rx="1"/>
<rect x="243.00" y="981" width="14.25" height="18" fill="rgba(255,255,255,0.40)" rx="1"/>
<rect x="241.75" y="561" width="20.75" height="18" fill="rgba(255,255,255,0.40)" rx="1"/>
<rect x="250.75" y="1041" width="15.75" height="18" fill="rgba(255,255,255,0.40)" rx="1"/>
<rect x="262.50" y="561" width="10.50" height="18" fill="rgba(255,255,255,0.40)" rx="1"/>
<rect x="253.50" y="1121" width="20.75" height="18" fill="rgba(255,255,255,0.40)" rx="1"/>
<rect x="254.75" y="741" width="23.25" height="18" fill="rgba(255,255,255,0.40)" rx="1"/>
<rect x="284.50" y="1121" width="35.25" height="18" fill="rgba(255,255,255,0.40)" rx="1"/>
<rect x="312.00" y="1361" width="36.25" height="18" fill="rgba(255,255,255,0.40)" rx="1"/>
<rect x="279.50" y="981" width="102.50" height="18" fill="rgba(255,255,255,0.40)" rx="1"/>
<rect x="345.75" y="1121" width="53.25" height="18" fill="rgba(255,255,255,0.40)" rx="1"/>
<rect x="314.50" y="1281" width="158.50" height="18" fill="rgba(255,255,255,0.40)" rx="1"/>
<rect x="488.50" y="1281" width="42.00" height="18" fill="rgba(255,255,255,0.40)" rx="1"/>
<rect x="284.50" y="561" width="277.50" height="18" fill="rgba(255,255,255,0.40)" rx="1"/>
<rect x="510.75" y="981" width="51.25" height="18" fill="rgba(255,255,255,0.40)" rx="1"/>
<rect x="458.75" y="1521" width="117.50" height="18" fill="rgba(255,255,255,0.40)" rx="1"/>
<rect x="562.00" y="561" width="93.00" height="18" fill="rgba(255,255,255,0.40)" rx="1"/>
<rect x="664.25" y="1281" width="88.00" height="18" fill="rgba(255,255,255,0.40)" rx="1"/>
<rect x="769.25" y="1281" width="108.00" height="18" fill="rgba(255,255,255,0.40)" rx="1"/>
<rect x="244.25" y="801" width="729.50" height="18" fill="rgba(255,255,255,0.40)" rx="1"/>
<rect x="655.00" y="561" width="324.00" height="18" fill="rgba(255,255,255,0.40)" rx="1"/>
<rect x="289.75" y="741" width="690.50" height="18" fill="rgba(255,255,255,0.40)" rx="1"/>
<rect x="1016.25" y="441" width="5.25" height="18" fill="rgba(255,255,255,0.40)" rx="1"/>
<rect x="985.50" y="761" width="63.00" height="18" fill="rgba(255,255,255,0.40)" rx="1"/>
<rect x="1026.50" y="581" width="25.75" height="18" fill="rgba(255,255,255,0.40)" rx="1"/>
<rect x="1054.75" y="581" width="40.00" height="18" fill="rgba(255,255,255,0.40)" rx="1"/>
<rect x="1091.00" y="441" width="5.00" height="18" fill="rgba(255,255,255,0.40)" rx="1"/>
<rect x="1007.25" y="501" width="90.00" height="18" fill="rgba(255,255,255,0.40)" rx="1"/>
<rect x="986.75" y="821" width="145.25" height="18" fill="rgba(255,255,255,0.40)" rx="1"/>
<rect x="1094.75" y="581" width="47.50" height="18" fill="rgba(255,255,255,0.40)" rx="1"/>
<rect x="984.00" y="521" width="166.00" height="18" fill="rgba(255,255,255,0.40)" rx="1"/>
<rect x="990.50" y="681" width="159.50" height="18" fill="rgba(255,255,255,0.40)" rx="1"/>
<rect x="1134.75" y="821" width="20.50" height="18" fill="rgba(255,255,255,0.40)" rx="1"/>
<rect x="1150.00" y="521" width="11.75" height="18" fill="rgba(255,255,255,0.40)" rx="1"/>
<rect x="1150.00" y="681" width="36.00" height="18" fill="rgba(255,255,255,0.40)" rx="1"/>
<rect x="1155.25" y="821" width="358.50" height="18" fill="rgba(255,255,255,0.40)" rx="1"/>
<rect x="1048.50" y="761" width="516.50" height="18" fill="rgba(255,255,255,0.40)" rx="1"/>
<rect x="1142.25" y="581" width="425.25" height="18" fill="rgba(255,255,255,0.40)" rx="1"/>
<rect x="1161.75" y="521" width="413.75" height="18" fill="rgba(255,255,255,0.40)" rx="1"/>
<rect x="1551.75" y="661" width="68.25" height="18" fill="rgba(255,255,255,0.40)" rx="1"/>
<rect x="1553.00" y="501" width="78.75" height="18" fill="rgba(255,255,255,0.40)" rx="1"/>
<rect x="1642.25" y="701" width="6.75" height="18" fill="rgba(255,255,255,0.40)" rx="1"/>
<rect x="1639.75" y="861" width="10.50" height="18" fill="rgba(255,255,255,0.40)" rx="1"/>
<rect x="1616.00" y="881" width="42.00" height="18" fill="rgba(255,255,255,0.40)" rx="1"/>
<rect x="1637.00" y="781" width="25.00" height="18" fill="rgba(255,255,255,0.40)" rx="1"/>
<rect x="1583.25" y="461" width="89.25" height="18" fill="rgba(255,255,255,0.40)" rx="1"/>
<rect x="1645.00" y="1021" width="30.25" height="18" fill="rgba(255,255,255,0.40)" rx="1"/>
<rect x="1586.00" y="641" width="99.75" height="18" fill="rgba(255,255,255,0.40)" rx="1"/>
<rect x="1649.00" y="1181" width="42.00" height="18" fill="rgba(255,255,255,0.40)" rx="1"/>
<rect x="1685.75" y="641" width="7.75" height="18" fill="rgba(255,255,255,0.40)" rx="1"/>
<rect x="1680.50" y="841" width="14.25" height="18" fill="rgba(255,255,255,0.40)" rx="1"/>
<rect x="1660.75" y="701" width="38.00" height="18" fill="rgba(255,255,255,0.40)" rx="1"/>
<rect x="1689.50" y="941" width="19.75" height="18" fill="rgba(255,255,255,0.40)" rx="1"/>
<rect x="1694.75" y="1121" width="23.75" height="18" fill="rgba(255,255,255,0.40)" rx="1"/>
<rect x="1700.00" y="1021" width="21.00" height="18" fill="rgba(255,255,255,0.40)" rx="1"/>
<rect x="1706.75" y="1261" width="27.50" height="18" fill="rgba(255,255,255,0.40)" rx="1"/>
<rect x="1715.75" y="1041" width="30.25" height="18" fill="rgba(255,255,255,0.40)" rx="1"/>
<rect x="1725.00" y="401" width="38.00" height="18" fill="rgba(255,255,255,0.40)" rx="1"/>
<rect x="1746.00" y="1041" width="18.50" height="18" fill="rgba(255,255,255,0.40)" rx="1"/>
<rect x="1700.00" y="1181" width="68.25" height="18" fill="rgba(255,255,255,0.40)" rx="1"/>
<rect x="1746.00" y="1261" width="25.00" height="18" fill="rgba(255,255,255,0.40)" rx="1"/>
<rect x="1670.00" y="881" width="120.75" height="18" fill="rgba(255,255,255,0.40)" rx="1"/>
<rect x="1792.00" y="1281" width="11.50" height="18" fill="rgba(255,255,255,0.40)" rx="1"/>
<rect x="1806.25" y="801" width="19.25" height="18" fill="rgba(255,255,255,0.40)" rx="1"/>
<rect x="1768.25" y="1181" width="71.25" height="18" fill="rgba(255,255,255,0.40)" rx="1"/>
<rect x="1815.25" y="881" width="29.50" height="18" fill="rgba(255,255,255,0.40)" rx="1"/>
<rect x="1719.75" y="1421" width="127.50" height="18" fill="rgba(255,255,255,0.40)" rx="1"/>
<rect x="1816.50" y="1041" width="34.75" height="18" fill="rgba(255,255,255,0.40)" rx="1"/>
<rect x="1834.50" y="1321" width="41.00" height="18" fill="rgba(255,255,255,0.40)" rx="1"/>
<rect x="1859.00" y="1341" width="24.25" height="18" fill="rgba(255,255,255,0.40)" rx="1"/>
<rect x="1851.25" y="1181" width="41.00" height="18" fill="rgba(255,255,255,0.40)" rx="1"/>
<rect x="1884.50" y="1321" width="19.50" height="18" fill="rgba(255,255,255,0.40)" rx="1"/>
<rect x="1883.25" y="1361" width="23.25" height="18" fill="rgba(255,255,255,0.40)" rx="1"/>
<rect x="1884.50" y="1121" width="24.50" height="18" fill="rgba(255,255,255,0.40)" rx="1"/>
<rect x="1693.50" y="641" width="218.25" height="18" fill="rgba(255,255,255,0.40)" rx="1"/>
<rect x="1860.25" y="1261" width="56.50" height="18" fill="rgba(255,255,255,0.40)" rx="1"/>
<rect x="1904.00" y="1341" width="21.75" height="18" fill="rgba(255,255,255,0.40)" rx="1"/>
<rect x="1880.75" y="881" width="68.25" height="18" fill="rgba(255,255,255,0.40)" rx="1"/>
<rect x="1915.50" y="641" width="34.75" height="18" fill="rgba(255,255,255,0.40)" rx="1"/>
<rect x="1922.00" y="1561" width="43.75" height="18" fill="rgba(255,255,255,0.40)" rx="1"/>
<rect x="1919.25" y="1421" width="49.00" height="18" fill="rgba(255,255,255,0.40)" rx="1"/>
<rect x="1936.00" y="1321" width="47.75" height="18" fill="rgba(255,255,255,0.40)" rx="1"/>
<rect x="1961.75" y="641" width="25.75" height="18" fill="rgba(255,255,255,0.40)" rx="1"/>
<rect x="1968.25" y="1141" width="27.00" height="18" fill="rgba(255,255,255,0.40)" rx="1"/>
<rect x="1976.00" y="1181" width="21.75" height="18" fill="rgba(255,255,255,0.40)" rx="1"/>
<rect x="1964.50" y="881" width="34.50" height="18" fill="rgba(255,255,255,0.40)" rx="1"/>
<rect x="1983.75" y="1321" width="41.00" height="18" fill="rgba(255,255,255,0.40)" rx="1"/>
<rect x="1996.50" y="1561" width="28.25" height="18" fill="rgba(255,255,255,0.40)" rx="1"/>
<rect x="2001.75" y="881" width="46.25" height="18" fill="rgba(255,255,255,0.40)" rx="1"/>
<rect x="2048.00" y="1561" width="24.00" height="18" fill="rgba(255,255,255,0.40)" rx="1"/>
<rect x="1672.50" y="461" width="402.00" height="18" fill="rgba(255,255,255,0.40)" rx="1"/>
<rect x="2024.75" y="1321" width="52.25" height="18" fill="rgba(255,255,255,0.40)" rx="1"/>
<rect x="2075.75" y="1361" width="17.75" height="18" fill="rgba(255,255,255,0.40)" rx="1"/>
<rect x="2073.25" y="981" width="26.50" height="18" fill="rgba(255,255,255,0.40)" rx="1"/>
<rect x="2091.00" y="801" width="12.50" height="18" fill="rgba(255,255,255,0.40)" rx="1"/>
<rect x="2098.50" y="901" width="29.00" height="18" fill="rgba(255,255,255,0.40)" rx="1"/>
<rect x="2051.75" y="661" width="94.50" height="18" fill="rgba(255,255,255,0.40)" rx="1"/>
<rect x="2135.00" y="981" width="14.00" height="18" fill="rgba(255,255,255,0.40)" rx="1"/>
<rect x="2149.00" y="981" width="7.50" height="18" fill="rgba(255,255,255,0.40)" rx="1"/>
<rect x="2146.25" y="661" width="34.25" height="18" fill="rgba(255,255,255,0.40)" rx="1"/>
<rect x="2151.50" y="901" width="40.25" height="18" fill="rgba(255,255,255,0.40)" rx="1"/>
<rect x="2161.50" y="801" width="32.75" height="18" fill="rgba(255,255,255,0.40)" rx="1"/>
<rect x="2194.25" y="801" width="17.75" height="18" fill="rgba(255,255,255,0.40)" rx="1"/>
<rect x="2172.75" y="981" width="44.25" height="18" fill="rgba(255,255,255,0.40)" rx="1"/>
<rect x="2053.00" y="741" width="191.75" height="18" fill="rgba(255,255,255,0.40)" rx="1"/>
<rect x="2035.25" y="561" width="218.25" height="18" fill="rgba(255,255,255,0.40)" rx="1"/>
<rect x="2220.75" y="801" width="39.00" height="18" fill="rgba(255,255,255,0.40)" rx="1"/>
<rect x="2241.00" y="761" width="32.75" height="18" fill="rgba(255,255,255,0.40)" rx="1"/>
<rect x="2234.75" y="901" width="66.75" height="18" fill="rgba(255,255,255,0.40)" rx="1"/>
<rect x="2166.50" y="521" width="137.50" height="18" fill="rgba(255,255,255,0.40)" rx="1"/>
<rect x="2265.00" y="981" width="41.50" height="18" fill="rgba(255,255,255,0.40)" rx="1"/>
<rect x="2191.75" y="661" width="119.75" height="18" fill="rgba(255,255,255,0.40)" rx="1"/>
<rect x="2301.50" y="901" width="46.00" height="18" fill="rgba(255,255,255,0.40)" rx="1"/>
<rect x="2327.50" y="661" width="27.50" height="18" fill="rgba(255,255,255,0.40)" rx="1"/>
<rect x="2304.00" y="521" width="106.75" height="18" fill="rgba(255,255,255,0.40)" rx="1"/>
<rect x="2347.50" y="761" width="70.75" height="18" fill="rgba(255,255,255,0.40)" rx="1"/>
<rect x="2389.75" y="981" width="39.75" height="18" fill="rgba(255,255,255,0.40)" rx="1"/>
<rect x="2244.75" y="741" width="186.00" height="18" fill="rgba(255,255,255,0.40)" rx="1"/>
<rect x="2355.00" y="661" width="125.50" height="18" fill="rgba(255,255,255,0.40)" rx="1"/>
<rect x="2429.50" y="981" width="52.25" height="18" fill="rgba(255,255,255,0.40)" rx="1"/>
<rect x="2418.25" y="801" width="69.75" height="18" fill="rgba(255,255,255,0.40)" rx="1"/>
<rect x="2481.75" y="981" width="34.75" height="18" fill="rgba(255,255,255,0.40)" rx="1"/>
<rect x="2490.50" y="901" width="27.25" height="18" fill="rgba(255,255,255,0.40)" rx="1"/>
<rect x="2515.25" y="801" width="22.50" height="18" fill="rgba(255,255,255,0.40)" rx="1"/>
<rect x="2527.75" y="981" width="38.50" height="18" fill="rgba(255,255,255,0.40)" rx="1"/>
<rect x="2517.75" y="901" width="53.75" height="18" fill="rgba(255,255,255,0.40)" rx="1"/>
<rect x="2301.50" y="561" width="320.50" height="18" fill="rgba(255,255,255,0.40)" rx="1"/>
<rect x="2607.00" y="1001" width="39.25" height="18" fill="rgba(255,255,255,0.40)" rx="1"/>
<rect x="2639.75" y="1241" width="40.75" height="18" fill="rgba(255,255,255,0.40)" rx="1"/>
<rect x="2683.00" y="1221" width="35.50" height="18" fill="rgba(255,255,255,0.40)" rx="1"/>
<rect x="2718.50" y="981" width="31.50" height="18" fill="rgba(255,255,255,0.40)" rx="1"/>
<rect x="2550.00" y="521" width="212.75" height="18" fill="rgba(255,255,255,0.40)" rx="1"/>
<rect x="2613.25" y="901" width="183.75" height="18" fill="rgba(255,255,255,0.40)" rx="1"/>
<rect x="2770.50" y="1241" width="40.50" height="18" fill="rgba(255,255,255,0.40)" rx="1"/>
<rect x="2779.25" y="981" width="40.50" height="18" fill="rgba(255,255,255,0.40)" rx="1"/>
<rect x="2480.50" y="661" width="343.00" height="18" fill="rgba(255,255,255,0.40)" rx="1"/>
<rect x="2816.00" y="1221" width="16.50" height="18" fill="rgba(255,255,255,0.40)" rx="1"/>
<rect x="2430.75" y="741" width="416.75" height="18" fill="rgba(255,255,255,0.40)" rx="1"/>
<rect x="2835.00" y="661" width="32.75" height="18" fill="rgba(255,255,255,0.40)" rx="1"/>
<rect x="2824.75" y="1241" width="49.25" height="18" fill="rgba(255,255,255,0.40)" rx="1"/>
<rect x="2859.00" y="901" width="35.25" height="18" fill="rgba(255,255,255,0.40)" rx="1"/>
<rect x="2847.50" y="741" width="56.75" height="18" fill="rgba(255,255,255,0.40)" rx="1"/>
<rect x="2691.75" y="561" width="246.50" height="18" fill="rgba(255,255,255,0.40)" rx="1"/>
<rect x="2874.00" y="1241" width="73.25" height="18" fill="rgba(255,255,255,0.40)" rx="1"/>
<rect x="2638.50" y="801" width="311.25" height="18" fill="rgba(255,255,255,0.40)" rx="1"/>
<rect x="2917.00" y="981" width="39.00" height="18" fill="rgba(255,255,255,0.40)" rx="1"/>
<rect x="2870.25" y="661" width="118.50" height="18" fill="rgba(255,255,255,0.40)" rx="1"/>
<rect x="2973.75" y="1381" width="31.50" height="18" fill="rgba(255,255,255,0.40)" rx="1"/>
<rect x="2947.25" y="1241" width="80.50" height="18" fill="rgba(255,255,255,0.40)" rx="1"/>
<rect x="2992.50" y="1081" width="40.50" height="18" fill="rgba(255,255,255,0.40)" rx="1"/>
<rect x="3029.00" y="1241" width="35.50" height="18" fill="rgba(255,255,255,0.40)" rx="1"/>
<rect x="2986.25" y="901" width="88.25" height="18" fill="rgba(255,255,255,0.40)" rx="1"/>
<rect x="3059.50" y="661" width="21.25" height="18" fill="rgba(255,255,255,0.40)" rx="1"/>
<rect x="2904.25" y="741" width="177.75" height="18" fill="rgba(255,255,255,0.40)" rx="1"/>
<rect x="3072.00" y="1221" width="16.00" height="18" fill="rgba(255,255,255,0.40)" rx="1"/>
<rect x="3058.25" y="1041" width="32.25" height="18" fill="rgba(255,255,255,0.40)" rx="1"/>
<rect x="3080.75" y="1261" width="13.50" height="18" fill="rgba(255,255,255,0.40)" rx="1"/>
<rect x="3073.25" y="1001" width="24.75" height="18" fill="rgba(255,255,255,0.40)" rx="1"/>
<rect x="2905.50" y="521" width="202.25" height="18" fill="rgba(255,255,255,0.40)" rx="1"/>
<rect x="3099.25" y="1281" width="21.00" height="18" fill="rgba(255,255,255,0.40)" rx="1"/>
<rect x="3089.25" y="1401" width="36.00" height="18" fill="rgba(255,255,255,0.40)" rx="1"/>
<rect x="3132.50" y="921" width="13.75" height="18" fill="rgba(255,255,255,0.40)" rx="1"/>
<rect x="3122.75" y="461" width="32.00" height="18" fill="rgba(255,255,255,0.40)" rx="1"/>
<rect x="3141.25" y="681" width="37.00" height="18" fill="rgba(255,255,255,0.40)" rx="1"/>
<rect x="3135.00" y="1001" width="62.00" height="18" fill="rgba(255,255,255,0.40)" rx="1"/>
<rect x="3138.75" y="861" width="74.25" height="18" fill="rgba(255,255,255,0.40)" rx="1"/>
<rect x="3179.50" y="741" width="36.00" height="18" fill="rgba(255,255,255,0.40)" rx="1"/>
<rect x="3190.75" y="501" width="29.75" height="18" fill="rgba(255,255,255,0.40)" rx="1"/>
<rect x="3197.00" y="981" width="26.00" height="18" fill="rgba(255,255,255,0.40)" rx="1"/>
<rect x="3154.75" y="461" width="69.25" height="18" fill="rgba(255,255,255,0.40)" rx="1"/>
<rect x="3184.50" y="921" width="62.00" height="18" fill="rgba(255,255,255,0.40)" rx="1"/>
<rect x="3094.25" y="1241" width="154.50" height="18" fill="rgba(255,255,255,0.40)" rx="1"/>
<rect x="3232.75" y="981" width="24.75" height="18" fill="rgba(255,255,255,0.40)" rx="1"/>
<rect x="3178.25" y="681" width="109.00" height="18" fill="rgba(255,255,255,0.40)" rx="1"/>
<rect x="3216.75" y="801" width="92.75" height="18" fill="rgba(255,255,255,0.40)" rx="1"/>
<rect x="3335.25" y="981" width="22.25" height="18" fill="rgba(255,255,255,0.40)" rx="1"/>
<rect x="3324.25" y="481" width="35.50" height="18" fill="rgba(255,255,255,0.40)" rx="1"/>
<rect x="3215.50" y="741" width="151.75" height="18" fill="rgba(255,255,255,0.40)" rx="1"/>
<rect x="3330.50" y="561" width="58.75" height="18" fill="rgba(255,255,255,0.40)" rx="1"/>
<rect x="3309.50" y="801" width="84.75" height="18" fill="rgba(255,255,255,0.40)" rx="1"/>
<rect x="3232.75" y="501" width="163.75" height="18" fill="rgba(255,255,255,0.40)" rx="1"/>
<rect x="3388.00" y="701" width="11.00" height="18" fill="rgba(255,255,255,0.40)" rx="1"/>
<rect x="3246.50" y="921" width="173.25" height="18" fill="rgba(255,255,255,0.40)" rx="1"/>
<rect x="3405.25" y="801" width="30.50" height="18" fill="rgba(255,255,255,0.40)" rx="1"/>
<rect x="3396.50" y="501" width="45.50" height="18" fill="rgba(255,255,255,0.40)" rx="1"/>
<rect x="3400.25" y="941" width="41.75" height="18" fill="rgba(255,255,255,0.40)" rx="1"/>
<rect x="3419.75" y="921" width="28.25" height="18" fill="rgba(255,255,255,0.40)" rx="1"/>
<rect x="3367.25" y="741" width="89.25" height="18" fill="rgba(255,255,255,0.40)" rx="1"/>
<rect x="3487.25" y="621" width="24.50" height="18" fill="rgba(255,255,255,0.40)" rx="1"/>
<rect x="3460.25" y="921" width="63.75" height="18" fill="rgba(255,255,255,0.40)" rx="1"/>
<rect x="3287.25" y="681" width="241.75" height="18" fill="rgba(255,255,255,0.40)" rx="1"/>
<rect x="3410.00" y="701" width="132.25" height="18" fill="rgba(255,255,255,0.40)" rx="1"/>
<rect x="3529.00" y="681" width="13.25" height="18" fill="rgba(255,255,255,0.40)" rx="1"/>
<rect x="3276.00" y="1241" width="275.00" height="18" fill="rgba(255,255,255,0.40)" rx="1"/>
<rect x="3542.25" y="681" width="10.00" height="18" fill="rgba(255,255,255,0.40)" rx="1"/>
<rect x="3419.75" y="461" width="136.00" height="18" fill="rgba(255,255,255,0.40)" rx="1"/>
<rect x="3456.50" y="861" width="101.75" height="18" fill="rgba(255,255,255,0.40)" rx="1"/>
<rect x="3533.75" y="741" width="25.75" height="18" fill="rgba(255,255,255,0.40)" rx="1"/>
<rect x="3459.00" y="1001" width="112.75" height="18" fill="rgba(255,255,255,0.40)" rx="1"/>
<rect x="3526.50" y="921" width="51.50" height="18" fill="rgba(255,255,255,0.40)" rx="1"/>
<rect x="3568.00" y="981" width="12.25" height="18" fill="rgba(255,255,255,0.40)" rx="1"/>
<rect x="3524.00" y="941" width="68.75" height="18" fill="rgba(255,255,255,0.40)" rx="1"/>
<rect x="3553.50" y="501" width="67.00" height="18" fill="rgba(255,255,255,0.40)" rx="1"/>
<rect x="3566.75" y="801" width="58.75" height="18" fill="rgba(255,255,255,0.40)" rx="1"/>
<rect x="3552.25" y="681" width="75.75" height="18" fill="rgba(255,255,255,0.40)" rx="1"/>
<rect x="3578.00" y="921" width="60.00" height="18" fill="rgba(255,255,255,0.40)" rx="1"/>
<rect x="3653.00" y="561" width="18.75" height="18" fill="rgba(255,255,255,0.40)" rx="1"/>
<rect x="3680.75" y="941" width="10.00" height="18" fill="rgba(255,255,255,0.40)" rx="1"/>
<rect x="3559.50" y="741" width="148.75" height="18" fill="rgba(255,255,255,0.40)" rx="1"/>
<rect x="3620.50" y="501" width="100.25" height="18" fill="rgba(255,255,255,0.40)" rx="1"/>
<rect x="3625.50" y="801" width="96.50" height="18" fill="rgba(255,255,255,0.40)" rx="1"/>
<rect x="3695.75" y="861" width="27.50" height="18" fill="rgba(255,255,255,0.40)" rx="1"/>
<rect x="3702.00" y="1241" width="37.50" height="18" fill="rgba(255,255,255,0.40)" rx="1"/>
<rect x="3638.00" y="921" width="113.00" height="18" fill="rgba(255,255,255,0.40)" rx="1"/>
<rect x="3738.25" y="441" width="20.25" height="18" fill="rgba(255,255,255,0.40)" rx="1"/>
<rect x="3690.75" y="1001" width="70.25" height="18" fill="rgba(255,255,255,0.40)" rx="1"/>
<rect x="3699.50" y="461" width="61.50" height="18" fill="rgba(255,255,255,0.40)" rx="1"/>
<rect x="3761.00" y="461" width="8.75" height="18" fill="rgba(255,255,255,0.40)" rx="1"/>
<rect x="3742.00" y="621" width="35.25" height="18" fill="rgba(255,255,255,0.40)" rx="1"/>
<rect x="3723.25" y="861" width="70.25" height="18" fill="rgba(255,255,255,0.40)" rx="1"/>
<rect x="3776.00" y="941" width="17.50" height="18" fill="rgba(255,255,255,0.40)" rx="1"/>
<rect x="3769.75" y="461" width="31.25" height="18" fill="rgba(255,255,255,0.40)" rx="1"/>
<rect x="3781.00" y="981" width="21.25" height="18" fill="rgba(255,255,255,0.40)" rx="1"/>
<rect x="3628.00" y="681" width="176.75" height="18" fill="rgba(255,255,255,0.40)" rx="1"/>
<rect x="3786.00" y="921" width="34.00" height="18" fill="rgba(255,255,255,0.40)" rx="1"/>
<rect x="3788.50" y="1001" width="34.00" height="18" fill="rgba(255,255,255,0.40)" rx="1"/>
<rect x="3801.00" y="461" width="27.75" height="18" fill="rgba(255,255,255,0.40)" rx="1"/>
<rect x="3774.75" y="501" width="55.25" height="18" fill="rgba(255,255,255,0.40)" rx="1"/>
<rect x="3784.75" y="741" width="55.25" height="18" fill="rgba(255,255,255,0.40)" rx="1"/>
<rect x="3793.50" y="861" width="66.25" height="18" fill="rgba(255,255,255,0.40)" rx="1"/>
<rect x="3828.75" y="461" width="38.25" height="18" fill="rgba(255,255,255,0.40)" rx="1"/>
<rect x="3804.75" y="701" width="82.00" height="18" fill="rgba(255,255,255,0.40)" rx="1"/>
<rect x="3870.75" y="861" width="23.50" height="18" fill="rgba(255,255,255,0.40)" rx="1"/>
<rect x="3859.75" y="1001" width="39.25" height="18" fill="rgba(255,255,255,0.40)" rx="1"/>
<rect x="3838.75" y="1021" width="65.25" height="18" fill="rgba(255,255,255,0.40)" rx="1"/>
<rect x="3867.00" y="461" width="45.50" height="18" fill="rgba(255,255,255,0.40)" rx="1"/>
<rect x="3905.25" y="1001" width="18.50" height="18" fill="rgba(255,255,255,0.40)" rx="1"/>
<rect x="3793.50" y="941" width="147.50" height="18" fill="rgba(255,255,255,0.40)" rx="1"/>
<rect x="3917.50" y="1101" width="24.75" height="18" fill="rgba(255,255,255,0.40)" rx="1"/>
<rect x="3886.75" y="701" width="57.75" height="18" fill="rgba(255,255,255,0.40)" rx="1"/>
<rect x="3920.00" y="921" width="24.50" height="18" fill="rgba(255,255,255,0.40)" rx="1"/>
<rect x="3923.75" y="1021" width="20.75" height="18" fill="rgba(255,255,255,0.40)" rx="1"/>
<rect x="3959.50" y="1381" width="17.00" height="18" fill="rgba(255,255,255,0.40)" rx="1"/>
<rect x="3976.50" y="1421" width="18.50" height="18" fill="rgba(255,255,255,0.40)" rx="1"/>
<rect x="3974.25" y="1361" width="24.50" height="18" fill="rgba(255,255,255,0.40)" rx="1"/>
<rect x="4019.75" y="901" width="20.75" height="18" fill="rgba(255,255,255,0.40)" rx="1"/>
<rect x="4037.00" y="841" width="27.00" height="18" fill="rgba(255,255,255,0.40)" rx="1"/>
<rect x="4066.50" y="1321" width="22.00" height="18" fill="rgba(255,255,255,0.40)" rx="1"/>
<rect x="4025.75" y="521" width="71.50" height="18" fill="rgba(255,255,255,0.40)" rx="1"/>
<rect x="3740.75" y="1241" width="359.00" height="18" fill="rgba(255,255,255,0.40)" rx="1"/>
<rect x="4087.50" y="841" width="39.00" height="18" fill="rgba(255,255,255,0.40)" rx="1"/>
<rect x="4115.50" y="1241" width="38.00" height="18" fill="rgba(255,255,255,0.40)" rx="1"/>
<rect x="4013.50" y="1001" width="161.00" height="18" fill="rgba(255,255,255,0.40)" rx="1"/>
<rect x="4207.50" y="421" width="4.75" height="18" fill="rgba(255,255,255,0.40)" rx="1"/>
<rect x="4168.25" y="841" width="49.00" height="18" fill="rgba(255,255,255,0.40)" rx="1"/>
<rect x="4190.25" y="1001" width="32.00" height="18" fill="rgba(255,255,255,0.40)" rx="1"/>
<rect x="4174.50" y="1241" width="64.75" height="18" fill="rgba(255,255,255,0.40)" rx="1"/>
<rect x="4221.00" y="761" width="31.75" height="18" fill="rgba(255,255,255,0.40)" rx="1"/>
<rect x="4233.25" y="981" width="30.50" height="18" fill="rgba(255,255,255,0.40)" rx="1"/>
<rect x="4259.00" y="841" width="34.25" height="18" fill="rgba(255,255,255,0.40)" rx="1"/>
<rect x="4260.25" y="761" width="39.00" height="18" fill="rgba(255,255,255,0.40)" rx="1"/>
<rect x="4011.00" y="361" width="294.50" height="18" fill="rgba(255,255,255,0.40)" rx="1"/>
<rect x="4097.25" y="521" width="221.75" height="18" fill="rgba(255,255,255,0.40)" rx="1"/>
<rect x="4267.50" y="1001" width="56.25" height="18" fill="rgba(255,255,255,0.40)" rx="1"/>
<rect x="4319.00" y="521" width="11.00" height="18" fill="rgba(255,255,255,0.40)" rx="1"/>
<rect x="4178.00" y="661" width="165.50" height="18" fill="rgba(255,255,255,0.40)" rx="1"/>
<rect x="4332.50" y="421" width="14.50" height="18" fill="rgba(255,255,255,0.40)" rx="1"/>
<rect x="4317.75" y="901" width="49.25" height="18" fill="rgba(255,255,255,0.40)" rx="1"/>
<rect x="4289.50" y="1221" width="91.25" height="18" fill="rgba(255,255,255,0.40)" rx="1"/>
<rect x="4323.75" y="1001" width="71.00" height="18" fill="rgba(255,255,255,0.40)" rx="1"/>
<rect x="4352.00" y="841" width="45.25" height="18" fill="rgba(255,255,255,0.40)" rx="1"/>
<rect x="4380.75" y="1221" width="40.25" height="18" fill="rgba(255,255,255,0.40)" rx="1"/>
<rect x="4346.00" y="661" width="78.75" height="18" fill="rgba(255,255,255,0.40)" rx="1"/>
<rect x="4330.00" y="521" width="99.75" height="18" fill="rgba(255,255,255,0.40)" rx="1"/>
<rect x="4428.50" y="1221" width="16.25" height="18" fill="rgba(255,255,255,0.40)" rx="1"/>
<rect x="4427.25" y="1001" width="37.75" height="18" fill="rgba(255,255,255,0.40)" rx="1"/>
<rect x="4450.00" y="1221" width="15.00" height="18" fill="rgba(255,255,255,0.40)" rx="1"/>
<rect x="4399.75" y="761" width="72.75" height="18" fill="rgba(255,255,255,0.40)" rx="1"/>
<rect x="4444.75" y="901" width="31.50" height="18" fill="rgba(255,255,255,0.40)" rx="1"/>
<rect x="4424.75" y="841" width="65.25" height="18" fill="rgba(255,255,255,0.40)" rx="1"/>
<rect x="4305.50" y="601" width="190.75" height="18" fill="rgba(255,255,255,0.40)" rx="1"/>
<rect x="4429.75" y="521" width="69.00" height="18" fill="rgba(255,255,255,0.40)" rx="1"/>
<rect x="4465.00" y="1241" width="45.00" height="18" fill="rgba(255,255,255,0.40)" rx="1"/>
<rect x="4472.50" y="1081" width="56.50" height="18" fill="rgba(255,255,255,0.40)" rx="1"/>
<rect x="4492.50" y="901" width="45.25" height="18" fill="rgba(255,255,255,0.40)" rx="1"/>
<rect x="4503.75" y="761" width="34.00" height="18" fill="rgba(255,255,255,0.40)" rx="1"/>
<rect x="4530.25" y="1441" width="20.00" height="18" fill="rgba(255,255,255,0.40)" rx="1"/>
<rect x="4498.75" y="521" width="67.75" height="18" fill="rgba(255,255,255,0.40)" rx="1"/>
<rect x="4550.25" y="761" width="56.50" height="18" fill="rgba(255,255,255,0.40)" rx="1"/>
<rect x="4614.25" y="1421" width="18.50" height="18" fill="rgba(255,255,255,0.40)" rx="1"/>
<rect x="4566.50" y="521" width="76.25" height="18" fill="rgba(255,255,255,0.40)" rx="1"/>
<rect x="4630.25" y="1141" width="31.25" height="18" fill="rgba(255,255,255,0.40)" rx="1"/>
<rect x="4647.75" y="1421" width="21.25" height="18" fill="rgba(255,255,255,0.40)" rx="1"/>
<rect x="4646.50" y="1321" width="43.50" height="18" fill="rgba(255,255,255,0.40)" rx="1"/>
<rect x="4669.00" y="1401" width="21.00" height="18" fill="rgba(255,255,255,0.40)" rx="1"/>
<rect x="4490.00" y="841" width="221.25" height="18" fill="rgba(255,255,255,0.40)" rx="1"/>
<rect x="4496.25" y="601" width="217.50" height="18" fill="rgba(255,255,255,0.40)" rx="1"/>
<rect x="4708.75" y="1421" width="22.25" height="18" fill="rgba(255,255,255,0.40)" rx="1"/>
<rect x="4721.00" y="1321" width="26.25" height="18" fill="rgba(255,255,255,0.40)" rx="1"/>
<rect x="4731.00" y="1381" width="16.25" height="18" fill="rgba(255,255,255,0.40)" rx="1"/>
<rect x="4424.75" y="661" width="332.50" height="18" fill="rgba(255,255,255,0.40)" rx="1"/>
<rect x="4754.75" y="1141" width="32.25" height="18" fill="rgba(255,255,255,0.40)" rx="1"/>
<rect x="4757.25" y="661" width="45.75" height="18" fill="rgba(255,255,255,0.40)" rx="1"/>
<rect x="4803.00" y="661" width="13.75" height="18" fill="rgba(255,255,255,0.40)" rx="1"/>
<rect x="4606.75" y="761" width="227.50" height="18" fill="rgba(255,255,255,0.40)" rx="1"/>
<rect x="4799.50" y="1281" width="38.50" height="18" fill="rgba(255,255,255,0.40)" rx="1"/>
<rect x="4838.00" y="1381" width="34.50" height="18" fill="rgba(255,255,255,0.40)" rx="1"/>
<rect x="4831.75" y="1141" width="53.00" height="18" fill="rgba(255,255,255,0.40)" rx="1"/>
<rect x="4809.25" y="901" width="80.25" height="18" fill="rgba(255,255,255,0.40)" rx="1"/>
<rect x="4864.00" y="1461" width="26.75" height="18" fill="rgba(255,255,255,0.40)" rx="1"/>
<rect x="4864.00" y="1321" width="42.75" height="18" fill="rgba(255,255,255,0.40)" rx="1"/>
<rect x="4846.50" y="1001" width="67.50" height="18" fill="rgba(255,255,255,0.40)" rx="1"/>
<rect x="4884.75" y="1141" width="50.00" height="18" fill="rgba(255,255,255,0.40)" rx="1"/>
<rect x="4906.75" y="761" width="29.25" height="18" fill="rgba(255,255,255,0.40)" rx="1"/>
<rect x="4901.75" y="1281" width="44.00" height="18" fill="rgba(255,255,255,0.40)" rx="1"/>
<rect x="4914.00" y="1441" width="33.00" height="18" fill="rgba(255,255,255,0.40)" rx="1"/>
<rect x="4926.25" y="1081" width="25.50" height="18" fill="rgba(255,255,255,0.40)" rx="1"/>
<rect x="4937.25" y="1241" width="21.75" height="18" fill="rgba(255,255,255,0.40)" rx="1"/>
<rect x="4945.75" y="1281" width="24.25" height="18" fill="rgba(255,255,255,0.40)" rx="1"/>
<rect x="4884.75" y="661" width="118.25" height="18" fill="rgba(255,255,255,0.40)" rx="1"/>
<rect x="4970.00" y="1281" width="35.50" height="18" fill="rgba(255,255,255,0.40)" rx="1"/>
<rect x="4979.75" y="901" width="50.00" height="18" fill="rgba(255,255,255,0.40)" rx="1"/>
<rect x="4711.25" y="841" width="327.00" height="18" fill="rgba(255,255,255,0.40)" rx="1"/>
<rect x="4960.25" y="1381" width="87.75" height="18" fill="rgba(255,255,255,0.40)" rx="1"/>
<rect x="5020.00" y="1461" width="30.50" height="18" fill="rgba(255,255,255,0.40)" rx="1"/>
<rect x="5034.75" y="1221" width="21.75" height="18" fill="rgba(255,255,255,0.40)" rx="1"/>
<rect x="5025.00" y="761" width="39.00" height="18" fill="rgba(255,255,255,0.40)" rx="1"/>
<rect x="5048.00" y="1401" width="27.00" height="18" fill="rgba(255,255,255,0.40)" rx="1"/>
<rect x="5068.75" y="1661" width="22.00" height="18" fill="rgba(255,255,255,0.40)" rx="1"/>
<rect x="5075.00" y="1321" width="26.75" height="18" fill="rgba(255,255,255,0.40)" rx="1"/>
<rect x="5110.25" y="521" width="14.75" height="18" fill="rgba(255,255,255,0.40)" rx="1"/>
<rect x="5138.75" y="521" width="33.50" height="18" fill="rgba(255,255,255,0.40)" rx="1"/>
<rect x="5068.75" y="761" width="179.25" height="18" fill="rgba(255,255,255,0.40)" rx="1"/>
<rect x="4914.00" y="1001" width="346.50" height="18" fill="rgba(255,255,255,0.40)" rx="1"/>
<rect x="5248.00" y="761" width="18.75" height="18" fill="rgba(255,255,255,0.40)" rx="1"/>
<rect x="5260.50" y="1001" width="7.50" height="18" fill="rgba(255,255,255,0.40)" rx="1"/>
<rect x="5258.00" y="841" width="12.25" height="18" fill="rgba(255,255,255,0.40)" rx="1"/>
<rect x="5260.50" y="901" width="16.00" height="18" fill="rgba(255,255,255,0.40)" rx="1"/>
<rect x="5270.25" y="841" width="32.50" height="18" fill="rgba(255,255,255,0.40)" rx="1"/>
<rect x="5266.75" y="601" width="38.50" height="18" fill="rgba(255,255,255,0.40)" rx="1"/>
<rect x="5193.25" y="661" width="113.25" height="18" fill="rgba(255,255,255,0.40)" rx="1"/>
<rect x="5287.75" y="901" width="56.00" height="18" fill="rgba(255,255,255,0.40)" rx="1"/>
<rect x="5343.75" y="901" width="29.75" height="18" fill="rgba(255,255,255,0.40)" rx="1"/>
<rect x="5405.50" y="661" width="95.50" height="18" fill="rgba(255,255,255,0.40)" rx="1"/>
<rect x="5502.25" y="601" width="34.25" height="18" fill="rgba(255,255,255,0.40)" rx="1"/>
<rect x="5510.75" y="621" width="42.75" height="18" fill="rgba(255,255,255,0.40)" rx="1"/>
<rect x="5268.00" y="741" width="288.00" height="18" fill="rgba(255,255,255,0.40)" rx="1"/>
<rect x="5302.75" y="841" width="280.25" height="18" fill="rgba(255,255,255,0.40)" rx="1"/>
<rect x="5373.50" y="901" width="213.25" height="18" fill="rgba(255,255,255,0.40)" rx="1"/>
<rect x="5667.25" y="621" width="27.50" height="18" fill="rgba(255,255,255,0.40)" rx="1"/>
<rect x="5553.50" y="761" width="186.50" height="18" fill="rgba(255,255,255,0.40)" rx="1"/>
<rect x="5706.00" y="1001" width="40.25" height="18" fill="rgba(255,255,255,0.40)" rx="1"/>
<rect x="5801.50" y="1001" width="102.75" height="18" fill="rgba(255,255,255,0.40)" rx="1"/>
<rect x="5565.75" y="861" width="453.25" height="18" fill="rgba(255,255,255,0.40)" rx="1"/>
<rect x="5840.25" y="621" width="202.50" height="18" fill="rgba(255,255,255,0.40)" rx="1"/>
<rect x="5740.00" y="761" width="307.75" height="18" fill="rgba(255,255,255,0.40)" rx="1"/>
<rect x="6019.00" y="861" width="92.50" height="18" fill="rgba(255,255,255,0.40)" rx="1"/>
<rect x="5583.00" y="921" width="566.00" height="18" fill="rgba(255,255,255,0.40)" rx="1"/>
<rect x="6064.00" y="761" width="90.25" height="18" fill="rgba(255,255,255,0.40)" rx="1"/>
<rect x="6111.50" y="841" width="81.25" height="18" fill="rgba(255,255,255,0.40)" rx="1"/>
<rect x="5989.25" y="1001" width="213.75" height="18" fill="rgba(255,255,255,0.40)" rx="1"/>
<rect x="6187.50" y="1141" width="41.00" height="18" fill="rgba(255,255,255,0.40)" rx="1"/>
<rect x="6215.75" y="1181" width="12.75" height="18" fill="rgba(255,255,255,0.40)" rx="1"/>
<rect x="6213.00" y="841" width="36.00" height="18" fill="rgba(255,255,255,0.40)" rx="1"/>
<rect x="6224.75" y="1381" width="35.75" height="18" fill="rgba(255,255,255,0.40)" rx="1"/>
<rect x="6249.00" y="841" width="16.50" height="18" fill="rgba(255,255,255,0.40)" rx="1"/>
<rect x="6231.00" y="1141" width="39.75" height="18" fill="rgba(255,255,255,0.40)" rx="1"/>
<rect x="6154.25" y="761" width="176.75" height="18" fill="rgba(255,255,255,0.40)" rx="1"/>
<rect x="6301.50" y="821" width="30.75" height="18" fill="rgba(255,255,255,0.40)" rx="1"/>
<rect x="6339.75" y="1141" width="32.00" height="18" fill="rgba(255,255,255,0.40)" rx="1"/>
<rect x="6150.50" y="901" width="229.00" height="18" fill="rgba(255,255,255,0.40)" rx="1"/>
<rect x="6265.50" y="841" width="119.25" height="18" fill="rgba(255,255,255,0.40)" rx="1"/>
<rect x="6371.75" y="1141" width="13.00" height="18" fill="rgba(255,255,255,0.40)" rx="1"/>
<rect x="6384.75" y="841" width="24.00" height="18" fill="rgba(255,255,255,0.40)" rx="1"/>
<rect x="6405.00" y="1141" width="82.75" height="18" fill="rgba(255,255,255,0.40)" rx="1"/>
<rect x="6379.50" y="901" width="124.75" height="18" fill="rgba(255,255,255,0.40)" rx="1"/>
<rect x="6408.75" y="841" width="95.50" height="18" fill="rgba(255,255,255,0.40)" rx="1"/>
<rect x="6331.00" y="761" width="179.50" height="18" fill="rgba(255,255,255,0.40)" rx="1"/>
<rect x="6504.25" y="901" width="23.75" height="18" fill="rgba(255,255,255,0.40)" rx="1"/>
<rect x="6519.25" y="1381" width="30.00" height="18" fill="rgba(255,255,255,0.40)" rx="1"/>
<rect x="6042.75" y="621" width="520.50" height="18" fill="rgba(255,255,255,0.40)" rx="1"/>
<rect x="6487.75" y="1141" width="120.50" height="18" fill="rgba(255,255,255,0.40)" rx="1"/>
<rect x="6508.00" y="661" width="107.75" height="18" fill="rgba(255,255,255,0.40)" rx="1"/>
<rect x="6588.25" y="601" width="39.00" height="18" fill="rgba(255,255,255,0.40)" rx="1"/>
<rect x="6510.50" y="761" width="148.00" height="18" fill="rgba(255,255,255,0.40)" rx="1"/>
<rect x="6528.00" y="901" width="130.50" height="18" fill="rgba(255,255,255,0.40)" rx="1"/>
<rect x="6626.00" y="1141" width="57.75" height="18" fill="rgba(255,255,255,0.40)" rx="1"/>
<rect x="6529.25" y="1621" width="163.25" height="18" fill="rgba(255,255,255,0.40)" rx="1"/>
<rect x="6578.25" y="621" width="115.50" height="18" fill="rgba(255,255,255,0.40)" rx="1"/>
<rect x="6588.25" y="841" width="149.75" height="18" fill="rgba(255,255,255,0.40)" rx="1"/>
<rect x="6666.00" y="1381" width="73.25" height="18" fill="rgba(255,255,255,0.40)" rx="1"/>
<rect x="6738.00" y="841" width="36.50" height="18" fill="rgba(255,255,255,0.40)" rx="1"/>
<rect x="6658.50" y="761" width="164.00" height="18" fill="rgba(255,255,255,0.40)" rx="1"/>
<rect x="6859.00" y="601" width="35.25" height="18" fill="rgba(255,255,255,0.40)" rx="1"/>
<rect x="6862.75" y="541" width="35.50" height="18" fill="rgba(255,255,255,0.40)" rx="1"/>
<rect x="6859.00" y="641" width="40.50" height="18" fill="rgba(255,255,255,0.40)" rx="1"/>
<rect x="6862.75" y="581" width="44.25" height="18" fill="rgba(255,255,255,0.40)" rx="1"/>
<rect x="6898.25" y="541" width="8.75" height="18" fill="rgba(255,255,255,0.40)" rx="1"/>
<rect x="6894.25" y="601" width="100.50" height="18" fill="rgba(255,255,255,0.40)" rx="1"/>
<rect x="6651.00" y="661" width="361.75" height="18" fill="rgba(255,255,255,0.40)" rx="1"/>
<rect x="1638.50" y="1381" width="26.25" height="18" fill="rgba(255,255,255,1.00)" rx="1"/>
<rect x="3992.50" y="1381" width="45.75" height="18" fill="rgba(255,255,255,1.00)" rx="1"/>
</svg>