<svg xmlns="http://www.w3.org/2000/svg" width="14026.00" height="1740" viewBox="0 0 14026.00 1740" preserveAspectRatio="none" data-tempo="104.403387" data-unit-width="4" style="background:transparent">
<line x1="0" y1="1660" x2="14026.00" y2="1660" stroke="rgba(255,255,255,0.15)" stroke-width="1"/>
<line x1="0" y1="1420" x2="14026.00" y2="1420" stroke="rgba(255,255,255,0.15)" stroke-width="1"/>
<line x1="0" y1="1180" x2="14026.00" y2="1180" stroke="rgba(255,255,255,0.15)" stroke-width="1"/>
<line x1="0" y1="940" x2="14026.00" y2="940" stroke="rgba(255,255,255,0.15)" stroke-width="1"/>
<line x1="0" y1="700" x2="14026.00" y2="700" stroke="rgba(255,255,255,0.15)" stroke-width="1"/>
<line x1="0" y1="460" x2="14026.00" y2="460" stroke="rgba(255,255,255,0.15)" stroke-width="1"/>
<line x1="0" y1="220" x2="14026.00" y2="220" stroke="rgba(255,255,255,0.15)" stroke-width="1"/>
<rect x="269.00" y="261" width="88.00" height="18" fill="rgba(255,255,255,0.40)" rx="1"/>
<rect x="297.50" y="61" width="69.50" height="18" fill="rgba(255,255,255,0.40)" rx="1"/>
<rect x="486.00" y="981" width="28.50" height="18" fill="rgba(255,255,255,0.40)" rx="1"/>
<rect x="483.50" y="561" width="41.50" height="18" fill="rgba(255,255,255,0.40)" rx="1"/>
<rect x="501.50" y="1041" width="31.50" height="18" fill="rgba(255,255,255,0.40)" rx="1"/>
<rect x="525.00" y="561" width="21.00" height="18" fill="rgba(255,255,255,0.40)" rx="1"/>
<rect x="507.00" y="1121" width="41.50" height="18" fill="rgba(255,255,255,0.40)" rx="1"/>
<rect x="509.50" y="741" width="46.50" height="18" fill="rgba(255,255,255,0.40)" rx="1"/>
<rect x="569.00" y="1121" width="70.50" height="18" fill="rgba(255,255,255,0.40)" rx="1"/>
<rect x="624.00" y="1361" width="72.50" height="18" fill="rgba(255,255,255,0.40)" rx="1"/>
<rect x="559.00" y="981" width="205.00" height="18" fill="rgba(255,255,255,0.40)" rx="1"/>
<rect x="691.50" y="1121" width="106.50" height="18" fill="rgba(255,255,255,0.40)" rx="1"/>
<rect x="629.00" y="1281" width="317.00" height="18" fill="rgba(255,255,255,0.40)" rx="1"/>
<rect x="977.00" y="1281" width="84.00" height="18" fill="rgba(255,255,255,0.40)" rx="1"/>
<rect x="569.00" y="561" width="555.00" height="18" fill="rgba(255,255,255,0.40)" rx="1"/>
<rect x="1021.50" y="981" width="102.50" height="18" fill="rgba(255,255,255,0.40)" rx="1"/>
<rect x="917.50" y="1521" width="235.00" height="18" fill="rgba(255,255,255,0.40)" rx="1"/>
<rect x="1124.00" y="561" width="186.00" height="18" fill="rgba(255,255,255,0.40)" rx="1"/>
<rect x="1328.50" y="1281" width="176.00" height="18" fill="rgba(255,255,255,0.40)" rx="1"/>
<rect x="1538.50" y="1281" width="216.00" height="18" fill="rgba(255,255,255,0.40)" rx="1"/>
<rect x="488.50" y="801" width="1459.00" height="18" fill="rgba(255,255,255,0.40)" rx="1"/>
<rect x="1310.00" y="561" width="648.00" height="18" fill="rgba(255,255,255,0.40)" rx="1"/>
<rect x="579.50" y="741" width="1381.00" height="18" fill="rgba(255,255,255,0.40)" rx="1"/>
<rect x="2032.50" y="441" width="10.50" height="18" fill="rgba(255,255,255,0.40)" rx="1"/>
<rect x="1971.00" y="761" width="126.00" height="18" fill="rgba(255,255,255,0.40)" rx="1"/>
<rect x="2053.00" y="581" width="51.50" height="18" fill="rgba(255,255,255,0.40)" rx="1"/>
<rect x="2109.50" y="581" width="80.00" height="18" fill="rgba(255,255,255,0.40)" rx="1"/>
<rect x="2182.00" y="441" width="10.00" height="18" fill="rgba(255,255,255,0.40)" rx="1"/>
<rect x="2014.50" y="501" width="180.00" height="18" fill="rgba(255,255,255,0.40)" rx="1"/>
<rect x="1973.50" y="821" width="290.50" height="18" fill="rgba(255,255,255,0.40)" rx="1"/>
<rect x="2189.50" y="581" width="95.00" height="18" fill="rgba(255,255,255,0.40)" rx="1"/>
<rect x="1968.00" y="521" width="332.00" height="18" fill="rgba(255,255,255,0.40)" rx="1"/>
<rect x="1981.00" y="681" width="319.00" height="18" fill="rgba(255,255,255,0.40)" rx="1"/>
<rect x="2269.50" y="821" width="41.00" height="18" fill="rgba(255,255,255,0.40)" rx="1"/>
<rect x="2300.00" y="521" width="23.50" height="18" fill="rgba(255,255,255,0.40)" rx="1"/>
<rect x="2300.00" y="681" width="72.00" height="18" fill="rgba(255,255,255,0.40)" rx="1"/>
<rect x="2310.50" y="821" width="717.00" height="18" fill="rgba(255,255,255,0.40)" rx="1"/>
<rect x="2097.00" y="761" width="1033.00" height="18" fill="rgba(255,255,255,0.40)" rx="1"/>
<rect x="2284.50" y="581" width="850.50" height="18" fill="rgba(255,255,255,0.40)" rx="1"/>
<rect x="2323.50" y="521" width="827.50" height="18" fill="rgba(255,255,255,0.40)" rx="1"/>
<rect x="3103.50" y="661" width="136.50" height="18" fill="rgba(255,255,255,0.40)" rx="1"/>
<rect x="3106.00" y="501" width="157.50" height="18" fill="rgba(255,255,255,0.40)" rx="1"/>
<rect x="3284.50" y="701" width="13.50" height="18" fill="rgba(255,255,255,0.40)" rx="1"/>
<rect x="3279.50" y="861" width="21.00" height="18" fill="rgba(255,255,255,0.40)" rx="1"/>
<rect x="3232.00" y="881" width="84.00" height="18" fill="rgba(255,255,255,0.40)" rx="1"/>
<rect x="3274.00" y="781" width="50.00" height="18" fill="rgba(255,255,255,0.40)" rx="1"/>
<rect x="3166.50" y="461" width="178.50" height="18" fill="rgba(255,255,255,0.40)" rx="1"/>
<rect x="3290.00" y="1021" width="60.50" height="18" fill="rgba(255,255,255,0.40)" rx="1"/>
<rect x="3172.00" y="641" width="199.50" height="18" fill="rgba(255,255,255,0.40)" rx="1"/>
<rect x="3298.00" y="1181" width="84.00" height="18" fill="rgba(255,255,255,0.40)" rx="1"/>
<rect x="3371.50" y="641" width="15.50" height="18" fill="rgba(255,255,255,0.40)" rx="1"/>
<rect x="3361.00" y="841" width="28.50" height="18" fill="rgba(255,255,255,0.40)" rx="1"/>
<rect x="3321.50" y="701" width="76.00" height="18" fill="rgba(255,255,255,0.40)" rx="1"/>
<rect x="3379.00" y="941" width="39.50" height="18" fill="rgba(255,255,255,0.40)" rx="1"/>
<rect x="3389.50" y="1121" width="47.50" height="18" fill="rgba(255,255,255,0.40)" rx="1"/>
<rect x="3400.00" y="1021" width="42.00" height="18" fill="rgba(255,255,255,0.40)" rx="1"/>
<rect x="3413.50" y="1261" width="55.00" height="18" fill="rgba(255,255,255,0.40)" rx="1"/>
<rect x="3431.50" y="1041" width="60.50" height="18" fill="rgba(255,255,255,0.40)" rx="1"/>
<rect x="3450.00" y="401" width="76.00" height="18" fill="rgba(255,255,255,0.40)" rx="1"/>
<rect x="3492.00" y="1041" width="37.00" height="18" fill="rgba(255,255,255,0.40)" rx="1"/>
<rect x="3400.00" y="1181" width="136.50" height="18" fill="rgba(255,255,255,0.40)" rx="1"/>
<rect x="3492.00" y="1261" width="50.00" height="18" fill="rgba(255,255,255,0.40)" rx="1"/>
<rect x="3340.00" y="881" width="241.50" height="18" fill="rgba(255,255,255,0.40)" rx="1"/>
<rect x="3584.00" y="1281" width="23.00" height="18" fill="rgba(255,255,255,0.40)" rx="1"/>
<rect x="3612.50" y="801" width="38.50" height="18" fill="rgba(255,255,255,0.40)" rx="1"/>
<rect x="3536.50" y="1181" width="142.50" height="18" fill="rgba(255,255,255,0.40)" rx="1"/>
<rect x="3630.50" y="881" width="59.00" height="18" fill="rgba(255,255,255,0.40)" rx="1"/>
<rect x="3439.50" y="1421" width="255.00" height="18" fill="rgba(255,255,255,0.40)" rx="1"/>
<rect x="3633.00" y="1041" width="69.50" height="18" fill="rgba(255,255,255,0.40)" rx="1"/>
<rect x="3669.00" y="1321" width="82.00" height="18" fill="rgba(255,255,255,0.40)" rx="1"/>
<rect x="3718.00" y="1341" width="48.50" height="18" fill="rgba(255,255,255,0.40)" rx="1"/>
<rect x="3702.50" y="1181" width="82.00" height="18" fill="rgba(255,255,255,0.40)" rx="1"/>
<rect x="3769.00" y="1321" width="39.00" height="18" fill="rgba(255,255,255,0.40)" rx="1"/>
<rect x="3766.50" y="1361" width="46.50" height="18" fill="rgba(255,255,255,0.40)" rx="1"/>
<rect x="3769.00" y="1121" width="49.00" height="18" fill="rgba(255,255,255,0.40)" rx="1"/>
<rect x="3387.00" y="641" width="436.50" height="18" fill="rgba(255,255,255,0.40)" rx="1"/>
<rect x="3720.50" y="1261" width="113.00" height="18" fill="rgba(255,255,255,0.40)" rx="1"/>
<rect x="3808.00" y="1341" width="43.50" height="18" fill="rgba(255,255,255,0.40)" rx="1"/>
<rect x="3761.50" y="881" width="136.50" height="18" fill="rgba(255,255,255,0.40)" rx="1"/>
<rect x="3831.00" y="641" width="69.50" height="18" fill="rgba(255,255,255,0.40)" rx="1"/>
<rect x="3844.00" y="1561" width="87.50" height="18" fill="rgba(255,255,255,0.40)" rx="1"/>
<rect x="3838.50" y="1421" width="98.00" height="18" fill="rgba(255,255,255,0.40)" rx="1"/>
<rect x="3872.00" y="1321" width="95.50" height="18" fill="rgba(255,255,255,0.40)" rx="1"/>
<rect x="3923.50" y="641" width="51.50" height="18" fill="rgba(255,255,255,0.40)" rx="1"/>
<rect x="3936.50" y="1141" width="54.00" height="18" fill="rgba(255,255,255,0.40)" rx="1"/>
<rect x="3952.00" y="1181" width="43.50" height="18" fill="rgba(255,255,255,0.40)" rx="1"/>
<rect x="3929.00" y="881" width="69.00" height="18" fill="rgba(255,255,255,0.40)" rx="1"/>
<rect x="3967.50" y="1321" width="82.00" height="18" fill="rgba(255,255,255,0.40)" rx="1"/>
<rect x="3993.00" y="1561" width="56.50" height="18" fill="rgba(255,255,255,0.40)" rx="1"/>
<rect x="4003.50" y="881" width="92.50" height="18" fill="rgba(255,255,255,0.40)" rx="1"/>
<rect x="4096.00" y="1561" width="48.00" height="18" fill="rgba(255,255,255,0.40)" rx="1"/>
<rect x="3345.00" y="461" width="804.00" height="18" fill="rgba(255,255,255,0.40)" rx="1"/>
<rect x="4049.50" y="1321" width="104.50" height="18" fill="rgba(255,255,255,0.40)" rx="1"/>
<rect x="4151.50" y="1361" width="35.50" height="18" fill="rgba(255,255,255,0.40)" rx="1"/>
<rect x="4146.50" y="981" width="53.00" height="18" fill="rgba(255,255,255,0.40)" rx="1"/>
<rect x="4182.00" y="801" width="25.00" height="18" fill="rgba(255,255,255,0.40)" rx="1"/>
<rect x="4197.00" y="901" width="58.00" height="18" fill="rgba(255,255,255,0.40)" rx="1"/>
<rect x="4103.50" y="661" width="189.00" height="18" fill="rgba(255,255,255,0.40)" rx="1"/>
<rect x="4270.00" y="981" width="28.00" height="18" fill="rgba(255,255,255,0.40)" rx="1"/>
<rect x="4298.00" y="981" width="15.00" height="18" fill="rgba(255,255,255,0.40)" rx="1"/>
<rect x="4292.50" y="661" width="68.50" height="18" fill="rgba(255,255,255,0.40)" rx="1"/>
<rect x="4303.00" y="901" width="80.50" height="18" fill="rgba(255,255,255,0.40)" rx="1"/>
<rect x="4323.00" y="801" width="65.50" height="18" fill="rgba(255,255,255,0.40)" rx="1"/>
<rect x="4388.50" y="801" width="35.50" height="18" fill="rgba(255,255,255,0.40)" rx="1"/>
<rect x="4345.50" y="981" width="88.50" height="18" fill="rgba(255,255,255,0.40)" rx="1"/>
<rect x="4106.00" y="741" width="383.50" height="18" fill="rgba(255,255,255,0.40)" rx="1"/>
<rect x="4070.50" y="561" width="436.50" height="18" fill="rgba(255,255,255,0.40)" rx="1"/>
<rect x="4441.50" y="801" width="78.00" height="18" fill="rgba(255,255,255,0.40)" rx="1"/>
<rect x="4482.00" y="761" width="65.50" height="18" fill="rgba(255,255,255,0.40)" rx="1"/>
<rect x="4469.50" y="901" width="133.50" height="18" fill="rgba(255,255,255,0.40)" rx="1"/>
<rect x="4333.00" y="521" width="275.00" height="18" fill="rgba(255,255,255,0.40)" rx="1"/>
<rect x="4530.00" y="981" width="83.00" height="18" fill="rgba(255,255,255,0.40)" rx="1"/>
<rect x="4383.50" y="661" width="239.50" height="18" fill="rgba(255,255,255,0.40)" rx="1"/>
<rect x="4603.00" y="901" width="92.00" height="18" fill="rgba(255,255,255,0.40)" rx="1"/>
<rect x="4655.00" y="661" width="55.00" height="18" fill="rgba(255,255,255,0.40)" rx="1"/>
<rect x="4608.00" y="521" width="213.50" height="18" fill="rgba(255,255,255,0.40)" rx="1"/>
<rect x="4695.00" y="761" width="141.50" height="18" fill="rgba(255,255,255,0.40)" rx="1"/>
<rect x="4779.50" y="981" width="79.50" height="18" fill="rgba(255,255,255,0.40)" rx="1"/>
<rect x="4489.50" y="741" width="372.00" height="18" fill="rgba(255,255,255,0.40)" rx="1"/>
<rect x="4710.00" y="661" width="251.00" height="18" fill="rgba(255,255,255,0.40)" rx="1"/>
<rect x="4859.00" y="981" width="104.50" height="18" fill="rgba(255,255,255,0.40)" rx="1"/>
<rect x="4836.50" y="801" width="139.50" height="18" fill="rgba(255,255,255,0.40)" rx="1"/>
<rect x="4963.50" y="981" width="69.50" height="18" fill="rgba(255,255,255,0.40)" rx="1"/>
<rect x="4981.00" y="901" width="54.50" height="18" fill="rgba(255,255,255,0.40)" rx="1"/>
<rect x="5030.50" y="801" width="45.00" height="18" fill="rgba(255,255,255,0.40)" rx="1"/>
<rect x="5055.50" y="981" width="77.00" height="18" fill="rgba(255,255,255,0.40)" rx="1"/>
<rect x="5035.50" y="901" width="107.50" height="18" fill="rgba(255,255,255,0.40)" rx="1"/>
<rect x="4603.00" y="561" width="641.00" height="18" fill="rgba(255,255,255,0.40)" rx="1"/>
<rect x="5214.00" y="1001" width="78.50" height="18" fill="rgba(255,255,255,0.40)" rx="1"/>
<rect x="5279.50" y="1241" width="81.50" height="18" fill="rgba(255,255,255,0.40)" rx="1"/>
<rect x="5366.00" y="1221" width="71.00" height="18" fill="rgba(255,255,255,0.40)" rx="1"/>
<rect x="5437.00" y="981" width="63.00" height="18" fill="rgba(255,255,255,0.40)" rx="1"/>
<rect x="5100.00" y="521" width="425.50" height="18" fill="rgba(255,255,255,0.40)" rx="1"/>
<rect x="5226.50" y="901" width="367.50" height="18" fill="rgba(255,255,255,0.40)" rx="1"/>
<rect x="5541.00" y="1241" width="81.00" height="18" fill="rgba(255,255,255,0.40)" rx="1"/>
<rect x="5558.50" y="981" width="81.00" height="18" fill="rgba(255,255,255,0.40)" rx="1"/>
<rect x="4961.00" y="661" width="686.00" height="18" fill="rgba(255,255,255,0.40)" rx="1"/>
<rect x="5632.00" y="1221" width="33.00" height="18" fill="rgba(255,255,255,0.40)" rx="1"/>
<rect x="4861.50" y="741" width="833.50" height="18" fill="rgba(255,255,255,0.40)" rx="1"/>
<rect x="5670.00" y="661" width="65.50" height="18" fill="rgba(255,255,255,0.40)" rx="1"/>
<rect x="5649.50" y="1241" width="98.50" height="18" fill="rgba(255,255,255,0.40)" rx="1"/>
<rect x="5718.00" y="901" width="70.50" height="18" fill="rgba(255,255,255,0.40)" rx="1"/>
<rect x="5695.00" y="741" width="113.50" height="18" fill="rgba(255,255,255,0.40)" rx="1"/>
<rect x="5383.50" y="561" width="493.00" height="18" fill="rgba(255,255,255,0.40)" rx="1"/>
<rect x="5748.00" y="1241" width="146.50" height="18" fill="rgba(255,255,255,0.40)" rx="1"/>
<rect x="5277.00" y="801" width="622.50" height="18" fill="rgba(255,255,255,0.40)" rx="1"/>
<rect x="5834.00" y="981" width="78.00" height="18" fill="rgba(255,255,255,0.40)" rx="1"/>
<rect x="5740.50" y="661" width="237.00" height="18" fill="rgba(255,255,255,0.40)" rx="1"/>
<rect x="5947.50" y="1381" width="63.00" height="18" fill="rgba(255,255,255,0.40)" rx="1"/>
<rect x="5894.50" y="1241" width="161.00" height="18" fill="rgba(255,255,255,0.40)" rx="1"/>
<rect x="5985.00" y="1081" width="81.00" height="18" fill="rgba(255,255,255,0.40)" rx="1"/>
<rect x="6058.00" y="1241" width="71.00" height="18" fill="rgba(255,255,255,0.40)" rx="1"/>
<rect x="5972.50" y="901" width="176.50" height="18" fill="rgba(255,255,255,0.40)" rx="1"/>
<rect x="6119.00" y="661" width="42.50" height="18" fill="rgba(255,255,255,0.40)" rx="1"/>
<rect x="5808.50" y="741" width="355.50" height="18" fill="rgba(255,255,255,0.40)" rx="1"/>
<rect x="6144.00" y="1221" width="32.00" height="18" fill="rgba(255,255,255,0.40)" rx="1"/>
<rect x="6116.50" y="1041" width="64.50" height="18" fill="rgba(255,255,255,0.40)" rx="1"/>
<rect x="6161.50" y="1261" width="27.00" height="18" fill="rgba(255,255,255,0.40)" rx="1"/>
<rect x="6146.50" y="1001" width="49.50" height="18" fill="rgba(255,255,255,0.40)" rx="1"/>
<rect x="5811.00" y="521" width="404.50" height="18" fill="rgba(255,255,255,0.40)" rx="1"/>
<rect x="6198.50" y="1281" width="42.00" height="18" fill="rgba(255,255,255,0.40)" rx="1"/>
<rect x="6178.50" y="1401" width="72.00" height="18" fill="rgba(255,255,255,0.40)" rx="1"/>
<rect x="6265.00" y="921" width="27.50" height="18" fill="rgba(255,255,255,0.40)" rx="1"/>
<rect x="6245.50" y="461" width="64.00" height="18" fill="rgba(255,255,255,0.40)" rx="1"/>
<rect x="6282.50" y="681" width="74.00" height="18" fill="rgba(255,255,255,0.40)" rx="1"/>
<rect x="6270.00" y="1001" width="124.00" height="18" fill="rgba(255,255,255,0.40)" rx="1"/>
<rect x="6277.50" y="861" width="148.50" height="18" fill="rgba(255,255,255,0.40)" rx="1"/>
<rect x="6359.00" y="741" width="72.00" height="18" fill="rgba(255,255,255,0.40)" rx="1"/>
<rect x="6381.50" y="501" width="59.50" height="18" fill="rgba(255,255,255,0.40)" rx="1"/>
<rect x="6394.00" y="981" width="52.00" height="18" fill="rgba(255,255,255,0.40)" rx="1"/>
<rect x="6309.50" y="461" width="138.50" height="18" fill="rgba(255,255,255,0.40)" rx="1"/>
<rect x="6369.00" y="921" width="124.00" height="18" fill="rgba(255,255,255,0.40)" rx="1"/>
<rect x="6188.50" y="1241" width="309.00" height="18" fill="rgba(255,255,255,0.40)" rx="1"/>
<rect x="6465.50" y="981" width="49.50" height="18" fill="rgba(255,255,255,0.40)" rx="1"/>
<rect x="6356.50" y="681" width="218.00" height="18" fill="rgba(255,255,255,0.40)" rx="1"/>
<rect x="6433.50" y="801" width="185.50" height="18" fill="rgba(255,255,255,0.40)" rx="1"/>
<rect x="6670.50" y="981" width="44.50" height="18" fill="rgba(255,255,255,0.40)" rx="1"/>
<rect x="6648.50" y="481" width="71.00" height="18" fill="rgba(255,255,255,0.40)" rx="1"/>
<rect x="6431.00" y="741" width="303.50" height="18" fill="rgba(255,255,255,0.40)" rx="1"/>
<rect x="6661.00" y="561" width="117.50" height="18" fill="rgba(255,255,255,0.40)" rx="1"/>
<rect x="6619.00" y="801" width="169.50" height="18" fill="rgba(255,255,255,0.40)" rx="1"/>
<rect x="6465.50" y="501" width="327.50" height="18" fill="rgba(255,255,255,0.40)" rx="1"/>
<rect x="6776.00" y="701" width="22.00" height="18" fill="rgba(255,255,255,0.40)" rx="1"/>
<rect x="6493.00" y="921" width="346.50" height="18" fill="rgba(255,255,255,0.40)" rx="1"/>
<rect x="6810.50" y="801" width="61.00" height="18" fill="rgba(255,255,255,0.40)" rx="1"/>
<rect x="6793.00" y="501" width="91.00" height="18" fill="rgba(255,255,255,0.40)" rx="1"/>
<rect x="6800.50" y="941" width="83.50" height="18" fill="rgba(255,255,255,0.40)" rx="1"/>
<rect x="6839.50" y="921" width="56.50" height="18" fill="rgba(255,255,255,0.40)" rx="1"/>
<rect x="6734.50" y="741" width="178.50" height="18" fill="rgba(255,255,255,0.40)" rx="1"/>
<rect x="6974.50" y="621" width="49.00" height="18" fill="rgba(255,255,255,0.40)" rx="1"/>
<rect x="6920.50" y="921" width="127.50" height="18" fill="rgba(255,255,255,0.40)" rx="1"/>
<rect x="6574.50" y="681" width="483.50" height="18" fill="rgba(255,255,255,0.40)" rx="1"/>
<rect x="6820.00" y="701" width="264.50" height="18" fill="rgba(255,255,255,0.40)" rx="1"/>
<rect x="7058.00" y="681" width="26.50" height="18" fill="rgba(255,255,255,0.40)" rx="1"/>
<rect x="6552.00" y="1241" width="550.00" height="18" fill="rgba(255,255,255,0.40)" rx="1"/>
<rect x="7084.50" y="681" width="20.00" height="18" fill="rgba(255,255,255,0.40)" rx="1"/>
<rect x="6839.50" y="461" width="272.00" height="18" fill="rgba(255,255,255,0.40)" rx="1"/>
<rect x="6913.00" y="861" width="203.50" height="18" fill="rgba(255,255,255,0.40)" rx="1"/>
<rect x="7067.50" y="741" width="51.50" height="18" fill="rgba(255,255,255,0.40)" rx="1"/>
<rect x="6918.00" y="1001" width="225.50" height="18" fill="rgba(255,255,255,0.40)" rx="1"/>
<rect x="7053.00" y="921" width="103.00" height="18" fill="rgba(255,255,255,0.40)" rx="1"/>
<rect x="7136.00" y="981" width="24.50" height="18" fill="rgba(255,255,255,0.40)" rx="1"/>
<rect x="7048.00" y="941" width="137.50" height="18" fill="rgba(255,255,255,0.40)" rx="1"/>
<rect x="7107.00" y="501" width="134.00" height="18" fill="rgba(255,255,255,0.40)" rx="1"/>
<rect x="7133.50" y="801" width="117.50" height="18" fill="rgba(255,255,255,0.40)" rx="1"/>
<rect x="7104.50" y="681" width="151.50" height="18" fill="rgba(255,255,255,0.40)" rx="1"/>
<rect x="7156.00" y="921" width="120.00" height="18" fill="rgba(255,255,255,0.40)" rx="1"/>
<rect x="7306.00" y="561" width="37.50" height="18" fill="rgba(255,255,255,0.40)" rx="1"/>
<rect x="7361.50" y="941" width="20.00" height="18" fill="rgba(255,255,255,0.40)" rx="1"/>
<rect x="7119.00" y="741" width="297.50" height="18" fill="rgba(255,255,255,0.40)" rx="1"/>
<rect x="7241.00" y="501" width="200.50" height="18" fill="rgba(255,255,255,0.40)" rx="1"/>
<rect x="7251.00" y="801" width="193.00" height="18" fill="rgba(255,255,255,0.40)" rx="1"/>
<rect x="7391.50" y="861" width="55.00" height="18" fill="rgba(255,255,255,0.40)" rx="1"/>
<rect x="7404.00" y="1241" width="75.00" height="18" fill="rgba(255,255,255,0.40)" rx="1"/>
<rect x="7276.00" y="921" width="226.00" height="18" fill="rgba(255,255,255,0.40)" rx="1"/>
<rect x="7476.50" y="441" width="40.50" height="18" fill="rgba(255,255,255,0.40)" rx="1"/>
<rect x="7381.50" y="1001" width="140.50" height="18" fill="rgba(255,255,255,0.40)" rx="1"/>
<rect x="7399.00" y="461" width="123.00" height="18" fill="rgba(255,255,255,0.40)" rx="1"/>
<rect x="7522.00" y="461" width="17.50" height="18" fill="rgba(255,255,255,0.40)" rx="1"/>
<rect x="7484.00" y="621" width="70.50" height="18" fill="rgba(255,255,255,0.40)" rx="1"/>
<rect x="7446.50" y="861" width="140.50" height="18" fill="rgba(255,255,255,0.40)" rx="1"/>
<rect x="7552.00" y="941" width="35.00" height="18" fill="rgba(255,255,255,0.40)" rx="1"/>
<rect x="7539.50" y="461" width="62.50" height="18" fill="rgba(255,255,255,0.40)" rx="1"/>
<rect x="7562.00" y="981" width="42.50" height="18" fill="rgba(255,255,255,0.40)" rx="1"/>
<rect x="7256.00" y="681" width="353.50" height="18" fill="rgba(255,255,255,0.40)" rx="1"/>
<rect x="7572.00" y="921" width="68.00" height="18" fill="rgba(255,255,255,0.40)" rx="1"/>
<rect x="7577.00" y="1001" width="68.00" height="18" fill="rgba(255,255,255,0.40)" rx="1"/>
<rect x="7602.00" y="461" width="55.50" height="18" fill="rgba(255,255,255,0.40)" rx="1"/>
<rect x="7549.50" y="501" width="110.50" height="18" fill="rgba(255,255,255,0.40)" rx="1"/>
<rect x="7569.50" y="741" width="110.50" height="18" fill="rgba(255,255,255,0.40)" rx="1"/>
<rect x="7587.00" y="861" width="132.50" height="18" fill="rgba(255,255,255,0.40)" rx="1"/>
<rect x="7657.50" y="461" width="76.50" height="18" fill="rgba(255,255,255,0.40)" rx="1"/>
<rect x="7609.50" y="701" width="164.00" height="18" fill="rgba(255,255,255,0.40)" rx="1"/>
<rect x="7741.50" y="861" width="47.00" height="18" fill="rgba(255,255,255,0.40)" rx="1"/>
<rect x="7719.50" y="1001" width="78.50" height="18" fill="rgba(255,255,255,0.40)" rx="1"/>
<rect x="7677.50" y="1021" width="130.50" height="18" fill="rgba(255,255,255,0.40)" rx="1"/>
<rect x="7734.00" y="461" width="91.00" height="18" fill="rgba(255,255,255,0.40)" rx="1"/>
<rect x="7810.50" y="1001" width="37.00" height="18" fill="rgba(255,255,255,0.40)" rx="1"/>
<rect x="7587.00" y="941" width="295.00" height="18" fill="rgba(255,255,255,0.40)" rx="1"/>
<rect x="7835.00" y="1101" width="49.50" height="18" fill="rgba(255,255,255,0.40)" rx="1"/>
<rect x="7773.50" y="701" width="115.50" height="18" fill="rgba(255,255,255,0.40)" rx="1"/>
<rect x="7840.00" y="921" width="49.00" height="18" fill="rgba(255,255,255,0.40)" rx="1"/>
<rect x="7847.50" y="1021" width="41.50" height="18" fill="rgba(255,255,255,0.40)" rx="1"/>
<rect x="7919.00" y="1381" width="34.00" height="18" fill="rgba(255,255,255,0.40)" rx="1"/>
<rect x="7953.00" y="1421" width="37.00" height="18" fill="rgba(255,255,255,0.40)" rx="1"/>
<rect x="7948.50" y="1361" width="49.00" height="18" fill="rgba(255,255,255,0.40)" rx="1"/>
<rect x="8039.50" y="901" width="41.50" height="18" fill="rgba(255,255,255,0.40)" rx="1"/>
<rect x="8074.00" y="841" width="54.00" height="18" fill="rgba(255,255,255,0.40)" rx="1"/>
<rect x="8133.00" y="1321" width="44.00" height="18" fill="rgba(255,255,255,0.40)" rx="1"/>
<rect x="8051.50" y="521" width="143.00" height="18" fill="rgba(255,255,255,0.40)" rx="1"/>
<rect x="7481.50" y="1241" width="718.00" height="18" fill="rgba(255,255,255,0.40)" rx="1"/>
<rect x="8175.00" y="841" width="78.00" height="18" fill="rgba(255,255,255,0.40)" rx="1"/>
<rect x="8231.00" y="1241" width="76.00" height="18" fill="rgba(255,255,255,0.40)" rx="1"/>
<rect x="8027.00" y="1001" width="322.00" height="18" fill="rgba(255,255,255,0.40)" rx="1"/>
<rect x="8415.00" y="421" width="9.50" height="18" fill="rgba(255,255,255,0.40)" rx="1"/>
<rect x="8336.50" y="841" width="98.00" height="18" fill="rgba(255,255,255,0.40)" rx="1"/>
<rect x="8380.50" y="1001" width="64.00" height="18" fill="rgba(255,255,255,0.40)" rx="1"/>
<rect x="8349.00" y="1241" width="129.50" height="18" fill="rgba(255,255,255,0.40)" rx="1"/>
<rect x="8442.00" y="761" width="63.50" height="18" fill="rgba(255,255,255,0.40)" rx="1"/>
<rect x="8466.50" y="981" width="61.00" height="18" fill="rgba(255,255,255,0.40)" rx="1"/>
<rect x="8518.00" y="841" width="68.50" height="18" fill="rgba(255,255,255,0.40)" rx="1"/>
<rect x="8520.50" y="761" width="78.00" height="18" fill="rgba(255,255,255,0.40)" rx="1"/>
<rect x="8022.00" y="361" width="589.00" height="18" fill="rgba(255,255,255,0.40)" rx="1"/>
<rect x="8194.50" y="521" width="443.50" height="18" fill="rgba(255,255,255,0.40)" rx="1"/>
<rect x="8535.00" y="1001" width="112.50" height="18" fill="rgba(255,255,255,0.40)" rx="1"/>
<rect x="8638.00" y="521" width="22.00" height="18" fill="rgba(255,255,255,0.40)" rx="1"/>
<rect x="8356.00" y="661" width="331.00" height="18" fill="rgba(255,255,255,0.40)" rx="1"/>
<rect x="8665.00" y="421" width="29.00" height="18" fill="rgba(255,255,255,0.40)" rx="1"/>
<rect x="8635.50" y="901" width="98.50" height="18" fill="rgba(255,255,255,0.40)" rx="1"/>
<rect x="8579.00" y="1221" width="182.50" height="18" fill="rgba(255,255,255,0.40)" rx="1"/>
<rect x="8647.50" y="1001" width="142.00" height="18" fill="rgba(255,255,255,0.40)" rx="1"/>
<rect x="8704.00" y="841" width="90.50" height="18" fill="rgba(255,255,255,0.40)" rx="1"/>
<rect x="8761.50" y="1221" width="80.50" height="18" fill="rgba(255,255,255,0.40)" rx="1"/>
<rect x="8692.00" y="661" width="157.50" height="18" fill="rgba(255,255,255,0.40)" rx="1"/>
<rect x="8660.00" y="521" width="199.50" height="18" fill="rgba(255,255,255,0.40)" rx="1"/>
<rect x="8857.00" y="1221" width="32.50" height="18" fill="rgba(255,255,255,0.40)" rx="1"/>
<rect x="8854.50" y="1001" width="75.50" height="18" fill="rgba(255,255,255,0.40)" rx="1"/>
<rect x="8900.00" y="1221" width="30.00" height="18" fill="rgba(255,255,255,0.40)" rx="1"/>
<rect x="8799.50" y="761" width="145.50" height="18" fill="rgba(255,255,255,0.40)" rx="1"/>
<rect x="8889.50" y="901" width="63.00" height="18" fill="rgba(255,255,255,0.40)" rx="1"/>
<rect x="8849.50" y="841" width="130.50" height="18" fill="rgba(255,255,255,0.40)" rx="1"/>
<rect x="8611.00" y="601" width="381.50" height="18" fill="rgba(255,255,255,0.40)" rx="1"/>
<rect x="8859.50" y="521" width="138.00" height="18" fill="rgba(255,255,255,0.40)" rx="1"/>
<rect x="8930.00" y="1241" width="90.00" height="18" fill="rgba(255,255,255,0.40)" rx="1"/>
<rect x="8945.00" y="1081" width="113.00" height="18" fill="rgba(255,255,255,0.40)" rx="1"/>
<rect x="8985.00" y="901" width="90.50" height="18" fill="rgba(255,255,255,0.40)" rx="1"/>
<rect x="9007.50" y="761" width="68.00" height="18" fill="rgba(255,255,255,0.40)" rx="1"/>
<rect x="9060.50" y="1441" width="40.00" height="18" fill="rgba(255,255,255,0.40)" rx="1"/>
<rect x="8997.50" y="521" width="135.50" height="18" fill="rgba(255,255,255,0.40)" rx="1"/>
<rect x="9100.50" y="761" width="113.00" height="18" fill="rgba(255,255,255,0.40)" rx="1"/>
<rect x="9228.50" y="1421" width="37.00" height="18" fill="rgba(255,255,255,0.40)" rx="1"/>
<rect x="9133.00" y="521" width="152.50" height="18" fill="rgba(255,255,255,0.40)" rx="1"/>
<rect x="9260.50" y="1141" width="62.50" height="18" fill="rgba(255,255,255,0.40)" rx="1"/>
<rect x="9295.50" y="1421" width="42.50" height="18" fill="rgba(255,255,255,0.40)" rx="1"/>
<rect x="9293.00" y="1321" width="87.00" height="18" fill="rgba(255,255,255,0.40)" rx="1"/>
<rect x="9338.00" y="1401" width="42.00" height="18" fill="rgba(255,255,255,0.40)" rx="1"/>
<rect x="8980.00" y="841" width="442.50" height="18" fill="rgba(255,255,255,0.40)" rx="1"/>
<rect x="8992.50" y="601" width="435.00" height="18" fill="rgba(255,255,255,0.40)" rx="1"/>
<rect x="9417.50" y="1421" width="44.50" height="18" fill="rgba(255,255,255,0.40)" rx="1"/>
<rect x="9442.00" y="1321" width="52.50" height="18" fill="rgba(255,255,255,0.40)" rx="1"/>
<rect x="9462.00" y="1381" width="32.50" height="18" fill="rgba(255,255,255,0.40)" rx="1"/>
<rect x="8849.50" y="661" width="665.00" height="18" fill="rgba(255,255,255,0.40)" rx="1"/>
<rect x="9509.50" y="1141" width="64.50" height="18" fill="rgba(255,255,255,0.40)" rx="1"/>
<rect x="9514.50" y="661" width="91.50" height="18" fill="rgba(255,255,255,0.40)" rx="1"/>
<rect x="9606.00" y="661" width="27.50" height="18" fill="rgba(255,255,255,0.40)" rx="1"/>
<rect x="9213.50" y="761" width="455.00" height="18" fill="rgba(255,255,255,0.40)" rx="1"/>
<rect x="9599.00" y="1281" width="77.00" height="18" fill="rgba(255,255,255,0.40)" rx="1"/>
<rect x="9676.00" y="1381" width="69.00" height="18" fill="rgba(255,255,255,0.40)" rx="1"/>
<rect x="9663.50" y="1141" width="106.00" height="18" fill="rgba(255,255,255,0.40)" rx="1"/>
<rect x="9618.50" y="901" width="160.50" height="18" fill="rgba(255,255,255,0.40)" rx="1"/>
<rect x="9728.00" y="1461" width="53.50" height="18" fill="rgba(255,255,255,0.40)" rx="1"/>
<rect x="9728.00" y="1321" width="85.50" height="18" fill="rgba(255,255,255,0.40)" rx="1"/>
<rect x="9693.00" y="1001" width="135.00" height="18" fill="rgba(255,255,255,0.40)" rx="1"/>
<rect x="9769.50" y="1141" width="100.00" height="18" fill="rgba(255,255,255,0.40)" rx="1"/>
<rect x="9813.50" y="761" width="58.50" height="18" fill="rgba(255,255,255,0.40)" rx="1"/>
<rect x="9803.50" y="1281" width="88.00" height="18" fill="rgba(255,255,255,0.40)" rx="1"/>
<rect x="9828.00" y="1441" width="66.00" height="18" fill="rgba(255,255,255,0.40)" rx="1"/>
<rect x="9852.50" y="1081" width="51.00" height="18" fill="rgba(255,255,255,0.40)" rx="1"/>
<rect x="9874.50" y="1241" width="43.50" height="18" fill="rgba(255,255,255,0.40)" rx="1"/>
<rect x="9891.50" y="1281" width="48.50" height="18" fill="rgba(255,255,255,0.40)" rx="1"/>
<rect x="9769.50" y="661" width="236.50" height="18" fill="rgba(255,255,255,0.40)" rx="1"/>
<rect x="9940.00" y="1281" width="71.00" height="18" fill="rgba(255,255,255,0.40)" rx="1"/>
<rect x="9959.50" y="901" width="100.00" height="18" fill="rgba(255,255,255,0.40)" rx="1"/>
<rect x="9422.50" y="841" width="654.00" height="18" fill="rgba(255,255,255,0.40)" rx="1"/>
<rect x="9920.50" y="1381" width="175.50" height="18" fill="rgba(255,255,255,0.40)" rx="1"/>
<rect x="10040.00" y="1461" width="61.00" height="18" fill="rgba(255,255,255,0.40)" rx="1"/>
<rect x="10069.50" y="1221" width="43.50" height="18" fill="rgba(255,255,255,0.40)" rx="1"/>
<rect x="10050.00" y="761" width="78.00" height="18" fill="rgba(255,255,255,0.40)" rx="1"/>
<rect x="10096.00" y="1401" width="54.00" height="18" fill="rgba(255,255,255,0.40)" rx="1"/>
<rect x="10137.50" y="1661" width="44.00" height="18" fill="rgba(255,255,255,0.40)" rx="1"/>
<rect x="10150.00" y="1321" width="53.50" height="18" fill="rgba(255,255,255,0.40)" rx="1"/>
<rect x="10220.50" y="521" width="29.50" height="18" fill="rgba(255,255,255,0.40)" rx="1"/>
<rect x="10277.50" y="521" width="67.00" height="18" fill="rgba(255,255,255,0.40)" rx="1"/>
<rect x="10137.50" y="761" width="358.50" height="18" fill="rgba(255,255,255,0.40)" rx="1"/>
<rect x="9828.00" y="1001" width="693.00" height="18" fill="rgba(255,255,255,0.40)" rx="1"/>
<rect x="10496.00" y="761" width="37.50" height="18" fill="rgba(255,255,255,0.40)" rx="1"/>
<rect x="10521.00" y="1001" width="15.00" height="18" fill="rgba(255,255,255,0.40)" rx="1"/>
<rect x="10516.00" y="841" width="24.50" height="18" fill="rgba(255,255,255,0.40)" rx="1"/>
<rect x="10521.00" y="901" width="32.00" height="18" fill="rgba(255,255,255,0.40)" rx="1"/>
<rect x="10540.50" y="841" width="65.00" height="18" fill="rgba(255,255,255,0.40)" rx="1"/>
<rect x="10533.50" y="601" width="77.00" height="18" fill="rgba(255,255,255,0.40)" rx="1"/>
<rect x="10386.50" y="661" width="226.50" height="18" fill="rgba(255,255,255,0.40)" rx="1"/>
<rect x="10575.50" y="901" width="112.00" height="18" fill="rgba(255,255,255,0.40)" rx="1"/>
<rect x="10687.50" y="901" width="59.50" height="18" fill="rgba(255,255,255,0.40)" rx="1"/>
<rect x="10811.00" y="661" width="191.00" height="18" fill="rgba(255,255,255,0.40)" rx="1"/>
<rect x="11004.50" y="601" width="68.50" height="18" fill="rgba(255,255,255,0.40)" rx="1"/>
<rect x="11021.50" y="621" width="85.50" height="18" fill="rgba(255,255,255,0.40)" rx="1"/>
<rect x="10536.00" y="741" width="576.00" height="18" fill="rgba(255,255,255,0.40)" rx="1"/>
<rect x="10605.50" y="841" width="560.50" height="18" fill="rgba(255,255,255,0.40)" rx="1"/>
<rect x="10747.00" y="901" width="426.50" height="18" fill="rgba(255,255,255,0.40)" rx="1"/>
<rect x="11334.50" y="621" width="55.00" height="18" fill="rgba(255,255,255,0.40)" rx="1"/>
<rect x="11107.00" y="761" width="373.00" height="18" fill="rgba(255,255,255,0.40)" rx="1"/>
<rect x="11412.00" y="1001" width="80.50" height="18" fill="rgba(255,255,255,0.40)" rx="1"/>
<rect x="11603.00" y="1001" width="205.50" height="18" fill="rgba(255,255,255,0.40)" rx="1"/>
<rect x="11131.50" y="861" width="906.50" height="18" fill="rgba(255,255,255,0.40)" rx="1"/>
<rect x="11680.50" y="621" width="405.00" height="18" fill="rgba(255,255,255,0.40)" rx="1"/>
<rect x="11480.00" y="761" width="615.50" height="18" fill="rgba(255,255,255,0.40)" rx="1"/>
<rect x="12038.00" y="861" width="185.00" height="18" fill="rgba(255,255,255,0.40)" rx="1"/>
<rect x="11166.00" y="921" width="1132.00" height="18" fill="rgba(255,255,255,0.40)" rx="1"/>
<rect x="12128.00" y="761" width="180.50" height="18" fill="rgba(255,255,255,0.40)" rx="1"/>
<rect x="12223.00" y="841" width="162.50" height="18" fill="rgba(255,255,255,0.40)" rx="1"/>
<rect x="11978.50" y="1001" width="427.50" height="18" fill="rgba(255,255,255,0.40)" rx="1"/>
<rect x="12375.00" y="1141" width="82.00" height="18" fill="rgba(255,255,255,0.40)" rx="1"/>
<rect x="12431.50" y="1181" width="25.50" height="18" fill="rgba(255,255,255,0.40)" rx="1"/>
<rect x="12426.00" y="841" width="72.00" height="18" fill="rgba(255,255,255,0.40)" rx="1"/>
<rect x="12449.50" y="1381" width="71.50" height="18" fill="rgba(255,255,255,0.40)" rx="1"/>
<rect x="12498.00" y="841" width="33.00" height="18" fill="rgba(255,255,255,0.40)" rx="1"/>
<rect x="12462.00" y="1141" width="79.50" height="18" fill="rgba(255,255,255,0.40)" rx="1"/>
<rect x="12308.50" y="761" width="353.50" height="18" fill="rgba(255,255,255,0.40)" rx="1"/>
<rect x="12603.00" y="821" width="61.50" height="18" fill="rgba(255,255,255,0.40)" rx="1"/>
<rect x="12679.50" y="1141" width="64.00" height="18" fill="rgba(255,255,255,0.40)" rx="1"/>
<rect x="12301.00" y="901" width="458.00" height="18" fill="rgba(255,255,255,0.40)" rx="1"/>
<rect x="12531.00" y="841" width="238.50" height="18" fill="rgba(255,255,255,0.40)" rx="1"/>
<rect x="12743.50" y="1141" width="26.00" height="18" fill="rgba(255,255,255,0.40)" rx="1"/>
<rect x="12769.50" y="841" width="48.00" height="18" fill="rgba(255,255,255,0.40)" rx="1"/>
<rect x="12810.00" y="1141" width="165.50" height="18" fill="rgba(255,255,255,0.40)" rx="1"/>
<rect x="12759.00" y="901" width="249.50" height="18" fill="rgba(255,255,255,0.40)" rx="1"/>
<rect x="12817.50" y="841" width="191.00" height="18" fill="rgba(255,255,255,0.40)" rx="1"/>
<rect x="12662.00" y="761" width="359.00" height="18" fill="rgba(255,255,255,0.40)" rx="1"/>
<rect x="13008.50" y="901" width="47.50" height="18" fill="rgba(255,255,255,0.40)" rx="1"/>
<rect x="13038.50" y="1381" width="60.00" height="18" fill="rgba(255,255,255,0.40)" rx="1"/>
<rect x="12085.50" y="621" width="1041.00" height="18" fill="rgba(255,255,255,0.40)" rx="1"/>
<rect x="12975.50" y="1141" width="241.00" height="18" fill="rgba(255,255,255,0.40)" rx="1"/>
<rect x="13016.00" y="661" width="215.50" height="18" fill="rgba(255,255,255,0.40)" rx="1"/>
<rect x="13176.50" y="601" width="78.00" height="18" fill="rgba(255,255,255,0.40)" rx="1"/>
<rect x="13021.00" y="761" width="296.00" height="18" fill="rgba(255,255,255,0.40)" rx="1"/>
<rect x="13056.00" y="901" width="261.00" height="18" fill="rgba(255,255,255,0.40)" rx="1"/>
<rect x="13252.00" y="1141" width="115.50" height="18" fill="rgba(255,255,255,0.40)" rx="1"/>
<rect x="13058.50" y="1621" width="326.50" height="18" fill="rgba(255,255,255,0.40)" rx="1"/>
<rect x="13156.50" y="621" width="231.00" height="18" fill="rgba(255,255,255,0.40)" rx="1"/>
<rect x="13176.50" y="841" width="299.50" height="18" fill="rgba(255,255,255,0.40)" rx="1"/>
<rect x="13332.00" y="1381" width="146.50" height="18" fill="rgba(255,255,255,0.40)" rx="1"/>
<rect x="13476.00" y="841" width="73.00" height="18" fill="rgba(255,255,255,0.40)" rx="1"/>
<rect x="13317.00" y="761" width="328.00" height="18" fill="rgba(255,255,255,0.40)" rx="1"/>
<rect x="13718.00" y="601" width="70.50" height="18" fill="rgba(255,255,255,0.40)" rx="1"/>
<rect x="13725.50" y="541" width="71.00" height="18" fill="rgba(255,255,255,0.40)" rx="1"/>
<rect x="13718.00" y="641" width="81.00" height="18" fill="rgba(255,255,255,0.40)" rx="1"/>
<rect x="13725.50" y="581" width="88.50" height="18" fill="rgba(255,255,255,0.40)" rx="1"/>
<rect x="13796.50" y="541" width="17.50" height="18" fill="rgba(255,255,255,0.40)" rx="1"/>
<rect x="13788.50" y="601" width="201.00" height="18" fill="rgba(255,255,255,0.40)" rx="1"/>
<rect x="13302.00" y="661" width="723.50" height="18" fill="rgba(255,255,255,0.40)" rx="1"/>
<rect x="3277.00" y="1381" width="52.50" height="18" fill="rgba(255,255,255,1.00)" rx="1"/>
<rect x="7985.00" y="1381" width="91.50" height="18" fill="rgba(255,255,255,1.00)" rx="1"/>
</svg>